<svg id="svg" version="1.1" width="400" height="400" viewBox="0 0 400 400" xmlns="http://www.w3.org/2000/svg" xmlns:xlink="http://www.w3.org/1999/xlink" ><g id="svgg"><path id="path0" d="M198.730 20.595 C 199.429 20.682,200.571 20.682,201.270 20.595 C 201.968 20.508,201.396 20.438,200.000 20.438 C 198.604 20.438,198.032 20.508,198.730 20.595 M191.699 21.760 C 192.183 21.853,192.974 21.853,193.457 21.760 C 193.940 21.667,193.545 21.591,192.578 21.591 C 191.611 21.591,191.216 21.667,191.699 21.760 M206.938 21.761 C 207.424 21.854,208.127 21.851,208.501 21.753 C 208.874 21.655,208.477 21.579,207.617 21.583 C 206.758 21.587,206.452 21.667,206.938 21.761 M118.418 42.462 C 118.380 43.027,117.902 43.540,117.031 43.953 C 116.300 44.300,115.617 44.911,115.512 45.311 C 115.331 46.005,115.384 46.010,116.640 45.411 C 117.366 45.065,117.888 44.711,117.802 44.625 C 117.716 44.539,117.278 44.664,116.830 44.904 C 116.382 45.144,116.016 45.250,116.016 45.141 C 116.016 44.926,118.166 43.750,118.558 43.750 C 118.689 43.750,118.677 43.943,118.531 44.180 C 118.359 44.456,118.594 44.438,119.191 44.127 C 120.477 43.456,120.664 43.214,119.657 43.524 C 118.942 43.743,118.779 43.609,118.641 42.693 C 118.516 41.866,118.462 41.810,118.418 42.462 M113.928 45.490 C 113.801 45.821,112.909 46.474,111.946 46.942 C 110.983 47.410,110.283 47.936,110.391 48.111 C 110.499 48.286,110.319 48.326,109.991 48.200 C 109.318 47.941,108.093 48.962,108.515 49.430 C 108.666 49.597,108.487 49.626,108.118 49.493 C 107.749 49.361,107.332 49.439,107.191 49.666 C 107.051 49.894,106.349 50.325,105.631 50.625 C 104.913 50.925,103.748 51.666,103.042 52.272 C 102.336 52.878,101.187 53.603,100.488 53.883 C 99.790 54.163,99.219 54.634,99.219 54.930 C 99.219 55.642,98.816 55.610,97.646 54.804 C 96.730 54.173,96.708 54.174,97.230 54.820 C 97.646 55.337,97.670 55.612,97.327 55.954 C 96.985 56.297,96.872 56.221,96.863 55.645 C 96.851 54.892,96.846 54.892,96.407 55.649 C 95.784 56.723,93.687 58.984,93.314 58.984 C 93.144 58.984,92.555 59.433,92.007 59.982 C 91.458 60.531,90.837 60.873,90.627 60.743 C 90.158 60.454,89.031 61.542,88.301 62.988 C 87.943 63.698,87.450 64.063,86.848 64.063 C 86.035 64.063,85.750 64.440,85.891 65.332 C 85.917 65.493,85.774 65.581,85.574 65.527 C 85.375 65.474,84.944 65.781,84.617 66.211 C 84.042 66.968,84.031 66.962,84.269 66.020 C 84.488 65.153,84.379 65.203,83.254 66.484 C 82.561 67.273,81.695 67.994,81.329 68.086 C 80.963 68.177,81.053 68.214,81.529 68.167 C 82.005 68.120,82.466 68.276,82.554 68.514 C 82.643 68.756,83.290 68.416,84.032 67.737 C 87.113 64.916,99.960 55.170,101.748 54.297 C 103.683 53.352,107.373 50.627,107.167 50.295 C 107.020 50.056,107.095 49.993,107.345 50.148 C 107.938 50.515,112.177 48.081,111.854 47.559 C 111.706 47.319,111.783 47.260,112.038 47.417 C 112.279 47.566,113.010 47.413,113.660 47.076 C 114.943 46.413,115.266 45.960,114.160 46.374 C 113.558 46.600,113.541 46.551,114.021 45.962 C 114.320 45.594,114.473 45.202,114.362 45.091 C 114.250 44.979,114.055 45.159,113.928 45.490 M80.859 69.727 C 79.780 70.876,79.309 70.962,79.266 70.020 C 79.247 69.607,79.157 69.531,79.037 69.827 C 78.929 70.097,78.674 70.215,78.473 70.091 C 77.998 69.798,78.203 70.814,78.688 71.163 C 79.184 71.520,76.111 74.253,75.473 74.022 C 75.163 73.911,75.012 74.102,75.082 74.518 C 75.167 75.025,74.949 75.177,74.219 75.123 C 73.590 75.076,73.497 75.124,73.959 75.256 C 74.540 75.422,74.012 76.135,71.159 79.039 C 37.507 113.284,18.501 163.133,20.713 211.346 C 21.039 218.447,22.298 231.240,22.865 233.203 C 22.958 233.525,23.308 235.371,23.642 237.305 C 33.275 292.976,73.463 343.926,126.563 367.787 C 132.130 370.289,144.715 375.035,145.658 374.988 C 146.216 374.961,144.528 374.230,141.777 373.310 C 127.564 368.555,108.876 359.031,97.266 350.625 C 92.958 347.507,90.780 345.877,88.867 344.343 C 4.918 277.017,-2.237 154.456,73.303 77.719 C 76.589 74.380,79.982 71.128,80.841 70.492 C 82.334 69.387,82.795 68.750,82.099 68.750 C 81.922 68.750,81.364 69.189,80.859 69.727 M72.141 76.323 C 71.995 76.703,72.158 76.806,72.685 76.668 C 73.550 76.442,73.705 75.781,72.893 75.781 C 72.594 75.781,72.256 76.025,72.141 76.323 M66.309 81.910 C 65.496 82.122,65.390 82.813,66.169 82.813 C 66.468 82.813,66.814 82.549,66.938 82.227 C 67.062 81.904,67.125 81.661,67.078 81.686 C 67.031 81.711,66.685 81.812,66.309 81.910 M64.844 84.051 C 64.844 84.303,64.536 84.871,64.160 85.314 C 63.506 86.085,63.507 86.096,64.181 85.572 C 65.112 84.850,65.789 83.594,65.248 83.594 C 65.026 83.594,64.844 83.800,64.844 84.051 M342.101 94.303 C 342.249 94.536,342.374 94.844,342.377 94.987 C 342.394 95.721,342.812 95.542,342.875 94.773 C 342.921 94.225,342.734 93.880,342.390 93.880 C 342.083 93.880,341.953 94.071,342.101 94.303 M344.765 97.985 C 344.388 98.594,345.102 99.149,345.588 98.625 C 345.958 98.226,345.939 98.071,345.503 97.904 C 345.197 97.786,344.865 97.823,344.765 97.985 M346.382 100.719 C 346.807 101.436,347.241 101.964,347.345 101.891 C 347.746 101.612,348.854 102.885,348.657 103.397 C 348.300 104.329,351.547 108.702,352.196 108.163 C 352.652 107.785,352.540 107.557,351.538 106.818 C 349.686 105.451,348.495 103.653,349.765 104.140 C 350.066 104.256,350.435 104.151,350.586 103.907 C 350.746 103.648,350.640 103.511,350.332 103.577 C 350.042 103.640,348.860 102.729,347.706 101.553 C 345.997 99.811,345.752 99.656,346.382 100.719 M352.200 108.867 C 351.980 109.087,352.630 110.309,355.690 115.430 C 357.463 118.395,361.815 126.862,362.478 128.637 C 362.704 129.241,363.049 129.636,363.244 129.515 C 363.439 129.395,363.512 129.628,363.406 130.034 C 363.202 130.815,363.856 131.510,364.228 130.908 C 364.516 130.441,362.622 126.172,362.127 126.172 C 361.916 126.172,361.856 125.879,361.993 125.522 C 362.142 125.132,362.084 124.970,361.848 125.116 C 361.423 125.378,359.766 122.063,359.766 120.951 C 359.766 120.580,359.299 119.810,358.729 119.240 C 358.158 118.670,357.633 117.701,357.562 117.086 C 357.490 116.472,357.166 115.704,356.841 115.379 C 356.516 115.054,356.250 114.449,356.250 114.035 C 356.250 113.620,355.986 113.281,355.664 113.281 C 355.293 113.281,355.078 112.908,355.078 112.263 C 355.078 111.523,354.920 111.305,354.498 111.467 C 353.764 111.749,352.890 110.317,353.616 110.023 C 353.986 109.874,353.980 109.820,353.590 109.796 C 353.309 109.780,353.176 109.608,353.295 109.416 C 353.538 109.023,352.543 108.525,352.200 108.867 M71.403 114.839 C 68.240 115.793,65.884 119.110,65.887 122.606 C 65.890 125.384,65.472 124.630,75.977 140.822 C 80.854 148.341,85.662 155.772,86.661 157.337 C 87.659 158.902,89.751 162.141,91.309 164.535 L 94.141 168.887 94.183 207.588 C 94.206 228.874,94.338 247.344,94.476 248.633 C 94.614 249.922,94.672 232.476,94.606 209.864 L 94.486 168.751 88.092 158.887 C 64.450 122.409,65.611 124.437,66.418 121.055 C 66.908 119.000,68.642 116.701,70.445 115.715 C 71.603 115.081,77.571 115.027,166.211 114.842 L 260.742 114.644 166.602 114.582 C 114.824 114.548,71.985 114.664,71.403 114.839 M263.429 115.288 C 264.907 115.477,267.450 115.974,269.079 116.392 C 270.709 116.809,272.110 117.083,272.193 116.999 C 272.601 116.592,264.366 114.844,262.305 114.900 C 261.163 114.931,261.466 115.035,263.429 115.288 M273.633 117.677 C 291.475 124.689,303.474 140.685,305.056 159.570 C 305.585 165.889,305.586 242.122,305.057 248.047 C 303.611 264.238,294.848 278.397,281.512 286.090 C 280.475 286.689,279.714 287.266,279.821 287.373 C 279.928 287.480,281.480 286.603,283.270 285.423 C 294.763 277.847,302.144 266.799,304.960 252.959 C 305.779 248.936,306.224 168.673,305.477 159.961 C 304.281 146.038,298.487 134.600,288.281 126.017 C 283.809 122.256,276.687 118.135,273.438 117.429 C 272.697 117.268,272.744 117.328,273.633 117.677 M364.274 131.614 C 364.151 131.814,364.817 133.879,365.756 136.204 C 366.694 138.528,367.939 141.748,368.521 143.359 C 369.103 144.971,369.745 146.594,369.946 146.967 C 370.148 147.340,370.313 147.970,370.313 148.367 C 370.313 148.764,370.435 149.211,370.585 149.361 C 370.735 149.511,371.157 150.727,371.523 152.063 C 371.890 153.399,372.456 155.459,372.782 156.641 C 375.734 167.341,377.182 176.274,378.891 194.336 C 379.395 199.662,379.419 210.310,378.935 214.132 C 378.358 218.686,378.074 224.473,378.455 223.892 C 378.644 223.606,378.954 223.384,379.145 223.399 C 379.533 223.431,379.500 220.516,379.087 218.253 C 378.924 217.355,379.008 216.322,379.304 215.609 C 380.023 213.871,380.053 192.655,379.337 192.212 C 378.968 191.984,378.897 191.411,379.085 190.185 C 379.603 186.822,379.661 185.244,379.329 183.553 C 379.144 182.609,378.973 182.221,378.949 182.692 C 378.869 184.288,378.125 184.085,378.125 182.468 C 378.125 181.609,378.277 180.811,378.464 180.696 C 378.650 180.581,378.501 179.563,378.133 178.435 C 377.476 176.418,377.492 174.804,378.165 175.220 C 378.353 175.336,378.402 175.159,378.275 174.827 C 378.147 174.495,377.926 174.295,377.784 174.383 C 377.641 174.472,377.590 173.855,377.671 173.014 C 377.751 172.173,377.974 171.484,378.166 171.484 C 378.358 171.484,378.516 171.287,378.516 171.046 C 378.516 170.724,378.374 170.725,377.982 171.051 C 377.187 171.710,376.525 170.700,376.293 168.473 C 376.186 167.448,375.896 166.256,375.647 165.824 C 375.167 164.989,375.090 164.479,374.867 160.657 C 374.789 159.321,374.537 158.001,374.308 157.725 C 374.079 157.448,373.769 156.738,373.621 156.146 C 373.472 155.555,373.211 154.984,373.040 154.879 C 372.869 154.773,372.814 154.362,372.918 153.965 C 373.022 153.568,372.837 152.597,372.507 151.808 C 372.177 151.018,372.017 150.083,372.153 149.731 C 372.308 149.326,372.243 149.187,371.976 149.352 C 371.712 149.515,371.451 149.008,371.281 148.000 C 371.083 146.828,371.154 146.296,371.540 146.051 C 371.831 145.866,371.886 145.712,371.660 145.709 C 371.435 145.706,371.057 145.897,370.820 146.133 C 370.362 146.592,370.126 146.124,369.769 144.049 C 369.668 143.462,369.478 142.808,369.346 142.595 C 369.215 142.383,369.026 141.570,368.926 140.789 C 368.705 139.062,368.486 138.672,367.737 138.672 C 367.291 138.672,367.250 138.503,367.557 137.930 C 367.861 137.363,367.812 137.133,367.351 136.956 C 367.019 136.828,366.862 136.540,367.001 136.314 C 367.141 136.088,367.084 135.691,366.876 135.432 C 366.667 135.173,366.374 134.390,366.225 133.691 C 366.076 132.993,365.792 132.422,365.594 132.422 C 365.396 132.422,365.234 132.158,365.234 131.836 C 365.234 131.187,364.625 131.046,364.274 131.614 M371.331 144.368 C 371.017 145.185,371.016 145.182,371.596 145.182 C 371.872 145.182,372.098 144.860,372.098 144.466 C 372.098 143.587,371.652 143.530,371.331 144.368 M142.188 152.177 C 132.811 156.532,132.775 170.032,142.129 174.356 L 143.945 175.195 200.000 175.195 L 256.055 175.195 257.898 174.344 C 267.061 170.111,267.202 156.902,258.133 152.370 L 255.735 151.172 200.035 151.176 L 144.336 151.180 142.188 152.177 M17.319 190.625 C 17.319 192.236,17.388 192.896,17.472 192.090 C 17.556 191.284,17.556 189.966,17.472 189.160 C 17.388 188.354,17.319 189.014,17.319 190.625 M382.553 190.625 C 382.553 192.236,382.622 192.896,382.706 192.090 C 382.791 191.284,382.791 189.966,382.706 189.160 C 382.622 188.354,382.553 189.014,382.553 190.625 M141.914 192.992 C 132.433 197.590,132.928 211.517,142.703 215.174 L 144.951 216.016 200.000 216.016 L 255.049 216.016 257.297 215.174 C 267.173 211.479,267.500 197.301,257.813 192.802 L 255.664 191.805 200.000 191.811 L 144.336 191.817 141.914 192.992 M381.163 215.561 C 381.346 220.111,381.528 220.525,381.587 216.527 C 381.617 214.552,381.506 212.854,381.342 212.752 C 381.177 212.650,381.097 213.914,381.163 215.561 M18.533 215.766 C 18.406 216.274,18.375 217.284,18.463 218.012 C 18.594 219.082,18.637 218.975,18.687 217.457 C 18.725 216.333,18.905 215.675,19.136 215.818 C 19.358 215.954,19.423 215.798,19.290 215.450 C 18.970 214.618,18.804 214.687,18.533 215.766 M377.793 225.629 C 377.581 230.025,374.523 245.684,372.647 251.985 C 372.192 253.512,371.911 254.854,372.024 254.966 C 372.136 255.079,372.347 254.696,372.492 254.117 C 372.638 253.537,373.130 252.912,373.585 252.728 C 374.254 252.458,374.282 252.388,373.730 252.369 C 372.976 252.341,372.855 251.683,373.438 250.781 C 373.761 250.281,373.817 250.295,373.822 250.879 C 373.825 251.255,373.988 251.563,374.184 251.563 C 374.567 251.563,374.517 251.004,374.034 249.885 C 373.654 249.006,374.079 248.532,374.694 249.147 C 375.314 249.767,375.651 249.730,375.651 249.040 C 375.651 248.727,375.417 248.381,375.130 248.271 C 374.522 248.038,374.409 245.313,375.007 245.313 C 375.237 245.313,375.302 244.899,375.160 244.333 C 375.004 243.713,375.155 242.985,375.573 242.348 C 375.935 241.796,376.133 241.086,376.012 240.772 C 375.762 240.119,376.945 234.284,377.391 233.976 C 377.876 233.642,378.524 231.641,378.148 231.641 C 377.956 231.641,377.711 231.860,377.602 232.129 C 377.180 233.177,377.405 230.585,377.849 229.297 C 378.118 228.516,378.220 227.176,378.086 226.172 C 377.905 224.814,377.838 224.691,377.793 225.629 M143.243 232.981 C 132.969 236.678,132.182 250.870,141.992 255.527 L 144.336 256.640 175.725 256.640 L 207.113 256.641 209.123 255.638 C 218.473 250.972,218.445 237.849,209.076 233.480 L 207.227 232.617 175.977 232.532 C 150.375 232.462,144.458 232.543,143.243 232.981 M94.949 251.635 C 94.898 252.868,96.042 257.622,97.095 260.553 C 102.831 276.521,115.620 287.961,132.368 292.105 L 136.523 293.133 197.852 293.163 L 259.180 293.193 198.047 292.983 L 136.914 292.772 133.082 291.867 C 113.960 287.354,100.283 273.754,95.887 254.883 C 95.386 252.734,94.964 251.273,94.949 251.635 M371.254 256.543 C 368.838 267.146,359.015 288.069,350.026 301.758 C 346.976 306.402,346.951 306.453,348.004 305.795 C 348.457 305.512,348.828 305.083,348.828 304.842 C 348.828 304.161,350.411 302.311,350.792 302.546 C 350.979 302.661,351.068 302.429,350.991 302.030 C 350.762 300.839,352.404 298.522,352.816 299.457 C 353.073 300.042,353.102 299.995,352.952 299.231 C 352.828 298.600,353.144 297.654,353.866 296.496 C 354.473 295.523,355.534 293.716,356.224 292.480 C 356.915 291.245,357.652 290.234,357.864 290.234 C 358.076 290.234,358.153 290.079,358.036 289.890 C 357.919 289.700,358.167 289.108,358.586 288.575 C 359.006 288.041,359.238 287.493,359.102 287.357 C 358.966 287.221,359.059 287.109,359.310 287.109 C 359.561 287.109,359.762 286.890,359.758 286.621 C 359.734 285.147,362.312 280.871,363.080 281.111 C 364.912 281.684,365.038 281.699,364.355 281.260 C 363.979 281.018,363.672 280.580,363.672 280.287 C 363.672 279.993,363.452 279.661,363.184 279.549 C 362.813 279.395,362.836 279.223,363.281 278.833 C 363.604 278.551,363.867 278.057,363.867 277.734 C 363.867 277.412,364.152 277.169,364.501 277.194 C 364.994 277.230,365.097 276.964,364.967 276.000 C 364.838 275.041,365.037 274.523,365.844 273.716 C 366.480 273.080,366.795 272.433,366.651 272.058 C 366.521 271.720,366.571 271.540,366.760 271.657 C 366.950 271.775,367.212 271.593,367.342 271.255 C 367.672 270.394,367.638 270.229,367.188 270.508 C 366.631 270.852,366.703 270.077,367.285 269.461 C 367.554 269.178,367.783 268.770,367.795 268.555 C 367.865 267.304,368.513 265.991,368.974 266.168 C 369.623 266.417,369.979 265.334,370.071 262.829 C 370.112 261.696,370.360 260.759,370.668 260.569 C 370.957 260.390,371.068 260.040,370.915 259.792 C 370.761 259.544,370.804 259.129,371.009 258.870 C 371.433 258.335,372.019 255.469,371.705 255.469 C 371.592 255.469,371.389 255.952,371.254 256.543 M371.172 261.016 C 370.443 261.744,370.617 262.328,371.582 262.394 C 372.382 262.449,372.400 262.410,371.791 261.956 C 371.281 261.576,371.230 261.348,371.576 261.002 C 371.826 260.752,371.943 260.547,371.836 260.547 C 371.729 260.547,371.430 260.758,371.172 261.016 M360.807 285.417 C 360.455 285.769,360.477 287.020,360.840 287.244 C 361.001 287.344,361.133 286.915,361.133 286.291 C 361.133 285.667,361.118 285.156,361.100 285.156 C 361.082 285.156,360.951 285.273,360.807 285.417 M277.290 288.285 C 273.479 290.299,267.416 291.997,262.006 292.566 C 259.566 292.822,259.438 292.870,261.071 292.916 C 263.528 292.985,269.873 291.684,273.215 290.426 C 276.016 289.372,279.752 287.537,279.102 287.535 C 278.887 287.535,278.071 287.872,277.290 288.285 M357.309 291.406 C 357.196 291.836,357.243 292.188,357.413 292.188 C 357.583 292.188,357.813 291.836,357.926 291.406 C 358.038 290.977,357.991 290.625,357.821 290.625 C 357.652 290.625,357.421 290.977,357.309 291.406 M343.580 310.968 C 341.696 313.515,338.409 317.633,336.276 320.121 C 333.950 322.832,332.505 324.832,332.667 325.114 C 332.816 325.374,332.789 325.450,332.607 325.285 C 332.424 325.119,329.716 327.496,326.587 330.566 C 323.458 333.636,319.492 337.430,317.773 338.997 C 316.055 340.564,314.895 341.720,315.197 341.566 C 315.560 341.381,315.650 341.440,315.463 341.743 C 315.308 341.994,315.017 342.099,314.817 341.976 C 314.617 341.852,312.760 343.113,310.690 344.778 C 306.365 348.257,305.476 348.895,298.828 353.284 C 282.586 364.009,266.686 371.307,248.174 376.531 C 227.082 382.484,199.588 384.736,181.055 382.030 C 177.270 381.478,173.104 381.223,174.219 381.612 C 174.756 381.800,176.196 381.971,177.418 381.992 C 178.641 382.014,179.750 382.207,179.883 382.422 C 180.016 382.637,180.432 382.813,180.809 382.813 C 181.185 382.812,181.871 383.164,182.332 383.594 C 183.330 384.524,183.650 384.587,183.346 383.792 C 182.998 382.885,184.043 382.723,187.166 383.197 C 188.746 383.438,190.830 383.754,191.797 383.899 L 193.555 384.164 191.797 384.432 C 190.830 384.579,191.797 384.612,193.945 384.505 C 199.125 384.247,201.060 384.260,205.391 384.581 C 208.498 384.811,209.130 384.755,209.751 384.193 C 210.307 383.689,211.517 383.486,214.907 383.327 C 217.681 383.196,219.659 382.915,220.201 382.575 C 221.409 381.816,222.413 381.865,222.105 382.667 C 221.898 383.207,222.054 383.260,223.138 383.015 C 223.840 382.856,224.744 382.736,225.146 382.749 C 225.549 382.761,226.150 382.499,226.483 382.167 C 226.913 381.737,227.505 381.629,228.537 381.794 C 229.569 381.959,230.126 381.858,230.471 381.443 C 230.790 381.058,231.669 380.859,233.056 380.859 C 234.299 380.859,235.156 380.687,235.156 380.438 C 235.156 380.173,235.590 380.111,236.319 380.272 C 237.655 380.565,239.181 380.195,238.850 379.659 C 238.727 379.460,238.768 379.291,238.942 379.285 C 243.585 379.108,244.502 378.948,246.161 378.021 C 247.149 377.470,248.109 377.162,248.295 377.336 C 248.481 377.511,249.863 377.240,251.367 376.736 C 252.871 376.231,254.563 375.810,255.128 375.800 C 255.692 375.789,256.369 375.522,256.632 375.206 C 256.895 374.889,257.751 374.514,258.535 374.372 C 259.319 374.230,260.703 373.684,261.609 373.159 C 262.516 372.634,263.439 372.317,263.660 372.454 C 263.881 372.590,264.063 372.434,264.063 372.106 C 264.063 371.761,264.288 371.596,264.597 371.714 C 264.891 371.827,265.789 371.550,266.593 371.099 C 267.397 370.647,268.343 370.308,268.695 370.346 C 269.687 370.451,271.863 369.867,272.139 369.420 C 272.291 369.173,272.190 369.141,271.875 369.336 C 271.553 369.535,271.458 369.499,271.620 369.238 C 271.761 369.010,272.207 368.910,272.613 369.016 C 273.018 369.122,273.484 368.990,273.649 368.724 C 273.841 368.413,273.789 368.338,273.502 368.515 C 273.214 368.693,273.138 368.577,273.288 368.187 C 273.415 367.854,273.672 367.677,273.859 367.792 C 274.046 367.908,275.337 367.453,276.730 366.782 C 278.349 366.001,279.584 365.641,280.158 365.785 C 280.651 365.908,280.823 365.903,280.539 365.775 C 280.220 365.631,280.707 365.212,281.815 364.678 C 282.800 364.203,283.486 363.695,283.340 363.548 C 283.096 363.305,283.757 363.122,284.473 363.235 C 284.634 363.260,284.766 363.105,284.766 362.891 C 284.766 362.676,284.952 362.500,285.179 362.500 C 285.407 362.500,285.484 362.676,285.352 362.891 C 284.925 363.580,285.484 363.309,286.423 362.369 C 286.925 361.868,288.075 361.131,288.980 360.732 C 289.885 360.332,290.625 359.796,290.625 359.540 C 290.625 358.869,292.537 357.713,293.216 357.974 C 293.539 358.098,293.686 358.025,293.552 357.808 C 293.420 357.595,293.730 357.422,294.243 357.422 C 295.103 357.422,297.856 355.408,297.493 355.044 C 297.404 354.956,297.795 354.855,298.361 354.821 C 298.927 354.787,299.457 354.558,299.540 354.311 C 299.622 354.064,299.943 353.653,300.254 353.396 C 300.565 353.140,301.135 352.617,301.522 352.236 C 301.909 351.854,302.493 351.644,302.820 351.770 C 303.161 351.901,303.514 351.741,303.646 351.396 C 303.773 351.065,304.129 350.891,304.438 351.010 C 304.747 351.128,305.114 351.039,305.254 350.812 C 305.414 350.554,305.263 350.494,304.850 350.653 C 304.390 350.829,304.246 350.739,304.373 350.355 C 304.474 350.052,305.325 349.520,306.265 349.173 C 307.205 348.825,308.040 348.342,308.121 348.099 C 308.202 347.855,308.517 347.656,308.822 347.656 C 309.126 347.656,309.375 347.413,309.375 347.116 C 309.375 346.521,312.270 343.750,312.892 343.750 C 313.106 343.750,313.281 343.947,313.281 344.188 C 313.281 344.493,313.459 344.479,313.863 344.144 C 314.183 343.879,314.356 343.518,314.247 343.342 C 314.139 343.166,314.218 342.919,314.423 342.792 C 314.628 342.665,314.996 342.873,315.240 343.254 C 315.639 343.876,315.663 343.878,315.476 343.274 C 315.362 342.905,315.441 342.496,315.652 342.366 C 315.864 342.235,315.988 341.917,315.929 341.659 C 315.823 341.198,318.720 338.314,319.181 338.422 C 319.311 338.452,319.908 337.893,320.509 337.180 C 321.109 336.466,321.707 336.056,321.838 336.268 C 322.208 336.866,323.573 335.682,323.308 334.992 C 323.183 334.667,323.276 334.279,323.515 334.132 C 323.768 333.976,323.840 334.041,323.687 334.288 C 323.543 334.521,323.631 334.839,323.883 334.995 C 324.200 335.190,324.275 335.022,324.125 334.450 C 323.861 333.439,324.711 332.646,325.766 332.922 C 326.291 333.059,326.610 332.887,326.771 332.382 C 326.900 331.974,327.199 331.641,327.435 331.641 C 327.671 331.641,327.752 331.528,327.614 331.390 C 327.476 331.252,327.130 331.296,326.846 331.487 C 326.563 331.679,326.646 331.544,327.032 331.187 C 327.418 330.831,327.734 330.347,327.734 330.113 C 327.734 329.879,327.905 329.688,328.113 329.688 C 328.321 329.688,328.379 329.979,328.243 330.335 C 328.089 330.735,328.465 330.562,329.232 329.879 C 330.610 328.651,330.588 327.959,329.208 329.137 C 328.344 329.874,328.340 329.874,328.913 329.114 C 330.243 327.348,330.591 327.057,331.198 327.202 C 332.142 327.427,332.838 326.820,332.962 325.665 C 333.022 325.101,334.163 323.321,335.508 321.696 C 337.777 318.953,338.564 318.439,340.039 318.736 C 340.254 318.780,340.299 318.685,340.140 318.526 C 339.981 318.366,340.066 317.956,340.329 317.614 C 340.619 317.236,340.464 317.285,339.932 317.738 C 338.490 318.969,338.570 318.215,340.092 316.221 L 341.520 314.350 342.033 315.476 C 342.517 316.537,342.534 316.544,342.342 315.596 C 342.216 314.976,342.356 314.409,342.708 314.117 C 343.022 313.856,343.194 313.318,343.090 312.920 C 342.986 312.523,343.092 312.079,343.325 311.935 C 343.559 311.791,343.750 311.898,343.750 312.173 C 343.750 312.717,345.073 310.993,345.148 310.352 C 345.173 310.137,345.220 309.731,345.253 309.450 C 345.286 309.168,345.493 309.050,345.713 309.186 C 345.933 309.322,346.088 309.288,346.057 309.111 C 345.878 308.078,346.133 307.644,346.525 308.317 C 346.902 308.965,346.991 308.942,347.729 308.004 C 348.528 306.989,348.469 306.553,347.515 306.413 C 347.235 306.372,345.464 308.422,343.580 310.968 M320.150 338.142 C 320.014 338.495,319.996 338.876,320.108 338.988 C 320.220 339.101,320.313 338.988,320.313 338.737 C 320.313 338.486,320.587 338.281,320.921 338.281 C 321.256 338.281,321.422 338.105,321.289 337.891 C 320.929 337.308,320.428 337.418,320.150 338.142 M84.375 343.229 C 84.375 343.587,84.491 343.765,84.632 343.623 C 84.773 343.482,85.169 343.581,85.511 343.844 C 85.892 344.137,85.845 343.985,85.389 343.450 C 84.498 342.406,84.375 342.379,84.375 343.229 M90.317 348.257 C 90.040 348.571,89.985 348.828,90.196 348.828 C 90.407 348.828,90.689 348.649,90.824 348.431 C 90.959 348.213,91.260 348.152,91.494 348.296 C 91.747 348.453,91.805 348.376,91.639 348.107 C 91.275 347.519,90.934 347.557,90.317 348.257 M102.415 355.957 C 103.725 357.193,104.474 357.573,103.545 356.531 C 103.024 355.947,102.440 355.469,102.248 355.469 C 102.055 355.469,102.130 355.688,102.415 355.957 M148.242 375.818 C 153.333 377.439,163.564 379.926,163.872 379.618 C 163.979 379.510,163.055 379.205,161.819 378.939 C 157.769 378.068,151.856 376.549,149.474 375.767 C 148.188 375.345,146.858 375.016,146.518 375.036 C 146.177 375.055,146.953 375.407,148.242 375.818 M145.047 375.668 C 145.381 376.208,146.875 376.590,146.875 376.135 C 146.875 375.941,146.714 375.781,146.516 375.781 C 146.319 375.781,145.851 375.663,145.476 375.520 C 145.047 375.355,144.888 375.410,145.047 375.668 M148.482 376.715 C 148.614 376.859,149.305 377.145,150.018 377.349 C 150.766 377.563,151.160 377.570,150.950 377.365 C 150.530 376.954,148.120 376.319,148.482 376.715 M248.261 378.746 C 247.452 379.337,247.774 379.425,248.998 378.946 C 249.413 378.783,249.587 378.548,249.384 378.422 C 249.181 378.297,248.676 378.442,248.261 378.746 M165.625 380.081 C 169.131 380.885,171.239 381.247,172.198 381.211 C 172.772 381.189,171.572 380.846,169.531 380.449 C 165.900 379.742,162.922 379.462,165.625 380.081 M175.195 382.813 C 176.262 383.271,176.563 383.271,176.563 382.813 C 176.563 382.598,176.079 382.434,175.488 382.449 C 174.536 382.474,174.503 382.515,175.195 382.813 M208.697 384.259 C 208.216 384.352,207.337 384.354,206.744 384.265 C 206.150 384.175,206.543 384.099,207.617 384.096 C 208.691 384.093,209.177 384.167,208.697 384.259 M186.631 386.224 C 187.550 386.307,188.956 386.305,189.756 386.221 C 190.556 386.138,189.805 386.070,188.086 386.071 C 186.367 386.073,185.713 386.142,186.631 386.224 " stroke="none" fill="#c0c0c0" fill-rule="evenodd"></path><path id="path1" d="M190.458 18.486 C 189.912 18.885,189.813 19.285,190.024 20.243 C 190.338 21.671,190.473 21.691,198.876 21.500 C 201.889 21.432,203.506 21.543,203.684 21.832 C 204.018 22.372,205.728 22.403,206.055 21.875 C 206.187 21.660,207.063 21.484,208.000 21.484 C 210.012 21.484,211.004 19.555,209.542 18.486 C 208.043 17.390,202.283 17.918,203.213 19.066 C 203.598 19.542,203.600 19.615,203.223 19.388 C 202.954 19.227,202.734 19.281,202.734 19.508 C 202.734 19.760,201.664 19.922,200.000 19.922 C 198.336 19.922,197.266 19.760,197.266 19.508 C 197.266 19.281,197.046 19.227,196.777 19.388 C 196.400 19.615,196.402 19.542,196.787 19.066 C 197.717 17.918,191.957 17.390,190.458 18.486 M201.270 20.595 C 200.571 20.682,199.429 20.682,198.730 20.595 C 198.032 20.508,198.604 20.438,200.000 20.438 C 201.396 20.438,201.968 20.508,201.270 20.595 M170.134 24.582 C 169.775 25.163,170.683 25.503,171.277 25.010 C 171.606 24.737,172.473 24.653,173.506 24.795 C 174.717 24.961,175.029 24.914,174.609 24.629 C 173.874 24.129,170.436 24.094,170.134 24.582 M232.255 24.569 C 231.557 24.842,231.552 24.882,232.189 25.127 C 233.269 25.541,233.882 25.439,234.126 24.805 C 234.371 24.164,233.551 24.061,232.255 24.569 M238.025 25.212 C 237.674 26.128,238.053 26.236,238.592 25.373 C 238.894 24.890,238.920 24.609,238.663 24.609 C 238.440 24.609,238.153 24.881,238.025 25.212 M152.375 27.449 C 152.392 27.928,152.494 28.101,152.602 27.832 C 152.711 27.563,153.341 27.344,154.004 27.344 C 155.486 27.344,155.155 26.905,153.531 26.716 C 152.515 26.598,152.348 26.703,152.375 27.449 M241.016 27.128 C 241.016 27.500,241.363 27.734,241.914 27.734 C 242.408 27.734,242.979 27.896,243.184 28.095 C 243.388 28.293,244.258 28.570,245.117 28.710 C 246.271 28.898,246.527 28.857,246.094 28.551 C 245.536 28.157,246.228 27.899,247.363 28.079 C 247.524 28.104,247.656 27.797,247.656 27.397 C 247.656 26.749,247.289 26.661,244.336 26.596 C 241.565 26.534,241.016 26.623,241.016 27.128 M259.766 32.383 C 259.766 33.785,262.754 34.771,264.819 34.051 C 265.660 33.758,266.020 33.774,266.157 34.110 C 266.260 34.363,266.358 34.196,266.375 33.738 C 266.403 32.994,266.153 32.888,264.010 32.733 C 262.370 32.614,261.463 32.353,261.135 31.905 C 260.402 30.902,259.766 31.124,259.766 32.383 M137.771 32.569 C 137.514 32.811,136.516 33.008,135.552 33.008 C 134.184 33.008,133.770 33.160,133.666 33.702 C 133.593 34.083,133.678 34.362,133.856 34.321 C 134.034 34.280,134.665 34.383,135.259 34.550 C 135.902 34.730,136.539 34.687,136.834 34.442 C 137.106 34.216,137.804 33.945,138.385 33.839 C 140.427 33.469,140.893 32.639,139.236 32.322 C 138.687 32.217,138.027 32.328,137.771 32.569 M119.043 37.131 C 117.693 37.936,118.284 39.965,119.922 40.148 C 120.459 40.208,120.947 40.397,121.006 40.567 C 121.226 41.204,123.482 40.555,123.345 39.894 C 123.273 39.544,122.936 39.304,122.597 39.361 C 122.134 39.438,121.990 39.146,122.020 38.189 C 122.063 36.790,120.528 36.244,119.043 37.131 M277.948 36.951 C 278.685 37.258,278.117 39.726,277.208 40.165 L 276.367 40.572 277.223 40.599 C 277.694 40.613,278.188 40.449,278.321 40.233 C 278.539 39.880,280.796 40.040,281.192 40.437 C 281.680 40.924,282.813 39.691,282.813 38.672 C 282.813 37.228,281.897 36.709,279.420 36.750 C 278.386 36.767,277.723 36.857,277.948 36.951 M116.016 40.648 C 116.016 40.876,115.838 40.952,115.620 40.817 C 115.401 40.682,115.119 41.105,114.986 41.771 C 114.806 42.669,114.532 42.969,113.893 42.969 C 113.424 42.969,112.699 43.221,112.282 43.530 C 111.535 44.083,111.535 44.089,112.305 43.971 C 112.734 43.905,113.269 43.994,113.492 44.170 C 114.578 45.026,118.178 43.439,118.457 41.980 C 118.624 41.107,118.357 40.831,117.480 40.969 C 117.319 40.995,117.188 40.840,117.188 40.625 C 117.188 40.410,116.924 40.234,116.602 40.234 C 116.279 40.234,116.016 40.421,116.016 40.648 M283.082 41.076 C 281.538 41.940,282.279 43.297,284.277 43.265 C 285.298 43.249,285.825 43.163,285.449 43.074 C 285.041 42.977,284.766 42.546,284.766 42.005 C 284.766 40.954,284.028 40.546,283.082 41.076 M289.074 46.078 C 288.404 46.502,288.565 46.748,289.634 46.936 C 290.122 47.021,290.453 46.821,290.542 46.387 C 290.694 45.645,289.993 45.497,289.074 46.078 M96.657 49.778 C 96.028 50.242,95.987 50.426,96.415 50.853 C 96.842 51.278,96.909 51.275,96.805 50.835 C 96.621 50.053,98.308 49.880,98.603 50.650 C 98.916 51.465,98.698 51.660,97.477 51.660 C 96.931 51.660,96.484 51.824,96.484 52.025 C 96.484 52.226,96.660 52.281,96.875 52.148 C 97.090 52.016,97.266 52.099,97.266 52.334 C 97.266 52.626,97.545 52.607,98.145 52.274 C 98.628 52.005,99.155 51.779,99.316 51.772 C 99.478 51.764,99.580 51.670,99.543 51.563 C 99.507 51.455,99.678 50.993,99.923 50.535 C 100.325 49.783,100.252 49.679,99.159 49.461 C 97.537 49.136,97.525 49.138,96.657 49.778 M103.005 49.470 C 103.262 49.574,103.375 49.912,103.257 50.221 C 103.109 50.604,103.316 50.781,103.912 50.781 C 104.615 50.781,104.695 50.676,104.328 50.233 C 103.979 49.813,103.991 49.638,104.378 49.483 C 104.656 49.372,104.355 49.280,103.711 49.280 C 103.066 49.280,102.749 49.366,103.005 49.470 M295.622 49.483 C 296.009 49.638,296.021 49.813,295.672 50.233 C 295.307 50.673,295.373 50.781,296.004 50.781 C 296.656 50.781,297.266 50.105,297.266 49.382 C 297.266 49.292,296.782 49.233,296.191 49.250 C 295.601 49.267,295.344 49.372,295.622 49.483 M100.130 51.367 C 100.130 52.025,101.763 52.187,102.146 51.567 C 102.279 51.351,102.134 51.277,101.818 51.398 C 101.506 51.518,101.135 51.428,100.993 51.199 C 100.618 50.592,100.130 50.688,100.130 51.367 M297.266 51.598 C 297.266 52.526,297.879 52.861,299.046 52.568 C 300.373 52.235,300.237 51.828,298.633 51.326 C 297.420 50.946,297.266 50.977,297.266 51.598 M96.289 54.688 C 96.142 55.150,96.110 55.616,96.218 55.723 C 96.325 55.830,96.533 55.540,96.680 55.078 C 96.826 54.616,96.858 54.150,96.751 54.043 C 96.644 53.935,96.436 54.225,96.289 54.688 M93.127 56.445 C 94.395 57.620,94.768 57.658,95.299 56.666 C 95.910 55.524,95.844 55.469,93.888 55.469 L 92.073 55.469 93.127 56.445 M79.300 62.063 C 78.180 62.261,77.891 62.515,77.686 63.477 C 77.283 65.367,77.311 67.969,77.734 67.969 C 77.949 67.969,78.125 68.315,78.125 68.738 C 78.125 69.261,78.312 69.435,78.711 69.282 C 79.118 69.126,79.297 69.309,79.297 69.880 C 79.297 70.970,79.635 70.906,81.152 69.525 C 82.719 68.100,82.719 68.060,81.154 68.290 C 80.013 68.458,79.939 68.412,80.418 67.834 C 80.712 67.481,80.861 66.846,80.750 66.423 C 80.640 66.000,80.795 65.450,81.095 65.201 C 81.514 64.853,81.641 64.864,81.641 65.247 C 81.641 65.598,81.852 65.555,82.355 65.100 C 82.748 64.744,83.305 64.453,83.592 64.453 C 83.879 64.453,84.013 64.352,83.890 64.228 C 83.766 64.105,83.813 63.490,83.993 62.861 L 84.320 61.719 82.492 61.770 C 81.487 61.798,80.050 61.930,79.300 62.063 M315.888 62.447 C 316.009 62.908,315.890 63.548,315.623 63.869 C 315.215 64.362,315.296 64.453,316.140 64.453 C 316.691 64.453,317.254 64.636,317.393 64.860 C 317.531 65.083,317.960 65.166,318.346 65.043 C 319.074 64.812,319.732 65.766,319.312 66.445 C 318.989 66.968,319.524 68.410,319.946 68.149 C 320.142 68.028,320.198 68.203,320.069 68.539 C 319.750 69.369,321.142 69.148,322.069 68.221 C 322.784 67.506,322.697 63.165,321.952 62.421 C 321.090 61.559,315.662 61.582,315.888 62.447 M71.371 68.213 C 70.988 68.595,71.021 70.703,71.410 70.703 C 72.032 70.703,72.995 69.712,73.118 68.945 C 73.244 68.153,71.966 67.617,71.371 68.213 M327.026 68.315 C 326.689 68.523,326.820 68.856,327.485 69.480 C 328.356 70.299,328.906 70.085,328.906 68.927 C 328.906 68.534,327.442 68.057,327.026 68.315 M75.951 71.136 C 75.771 71.427,75.955 71.482,76.514 71.305 C 77.667 70.938,77.582 71.771,76.367 72.726 C 75.427 73.466,75.075 74.229,75.684 74.210 C 76.549 74.183,79.030 71.411,78.493 71.071 C 77.713 70.578,76.273 70.614,75.951 71.136 M323.291 71.127 C 324.684 71.531,325.117 71.982,325.698 73.633 L 326.110 74.805 326.141 73.535 C 326.182 71.863,325.009 70.692,323.340 70.738 L 322.070 70.774 323.291 71.127 M65.413 74.769 C 64.919 75.129,64.835 75.444,65.103 75.923 C 65.436 76.518,65.556 76.491,66.351 75.645 C 67.366 74.565,66.631 73.878,65.413 74.769 M74.044 74.576 C 73.923 74.773,74.044 75.038,74.314 75.166 C 74.584 75.294,74.402 75.324,73.910 75.232 C 73.193 75.098,73.059 75.204,73.237 75.765 C 73.486 76.550,72.558 76.939,70.410 76.948 C 68.601 76.955,67.501 78.173,67.654 80.003 C 67.783 81.564,67.127 82.531,65.612 83.012 C 65.063 83.186,64.905 83.390,65.185 83.563 C 65.729 83.899,63.379 87.109,62.589 87.109 C 62.300 87.109,62.171 87.283,62.302 87.496 C 62.436 87.712,62.289 87.785,61.970 87.663 C 61.620 87.528,61.304 87.743,61.153 88.217 C 61.018 88.642,60.667 89.083,60.374 89.195 C 60.080 89.308,59.724 89.923,59.584 90.562 C 59.410 91.357,59.028 91.799,58.375 91.963 C 57.817 92.103,57.422 92.487,57.422 92.889 C 57.422 94.781,55.306 96.303,53.779 95.510 C 52.633 94.916,52.236 95.529,52.430 97.596 L 52.516 98.512 53.406 97.476 C 54.013 96.771,54.297 96.631,54.297 97.037 C 54.297 97.365,53.776 98.018,53.140 98.488 C 52.504 98.958,52.071 99.484,52.178 99.657 C 52.358 99.948,50.601 103.078,50.011 103.516 C 49.866 103.623,49.635 104.016,49.498 104.388 C 49.361 104.760,49.017 104.976,48.734 104.867 C 48.400 104.739,48.189 105.024,48.135 105.676 C 48.017 107.101,47.398 108.108,46.455 108.408 C 46.009 108.549,45.747 108.768,45.873 108.893 C 45.998 109.019,45.704 109.544,45.218 110.061 C 44.733 110.578,44.380 111.074,44.434 111.164 C 44.802 111.783,44.339 112.029,43.164 111.838 C 42.239 111.688,41.797 111.768,41.797 112.085 C 41.797 112.372,42.093 112.459,42.566 112.308 C 43.310 112.072,43.317 112.126,42.770 113.942 C 42.460 114.975,42.201 115.864,42.195 115.918 C 42.041 117.445,40.763 119.033,40.140 118.469 C 39.577 117.960,39.338 117.929,38.956 118.318 C 38.692 118.586,38.652 118.772,38.867 118.732 C 40.346 118.451,40.357 118.696,38.995 121.777 C 38.176 123.632,37.500 123.941,37.500 122.461 C 37.500 121.924,37.280 121.482,37.012 121.478 C 36.681 121.474,36.709 121.355,37.098 121.109 C 37.961 120.563,37.301 120.183,36.362 120.685 C 35.449 121.173,35.390 121.697,35.963 124.186 C 36.254 125.446,36.240 125.985,35.910 126.189 C 35.583 126.391,35.606 126.527,35.991 126.680 C 36.382 126.835,36.392 126.900,36.028 126.922 C 35.697 126.943,35.614 127.278,35.777 127.930 C 35.912 128.467,35.870 128.906,35.685 128.906 C 35.499 128.906,35.106 129.451,34.811 130.118 C 34.466 130.897,34.173 131.164,33.989 130.867 C 33.742 130.467,33.199 132.500,33.053 134.375 C 32.964 135.526,31.849 136.719,30.863 136.719 C 29.785 136.719,29.325 138.827,30.091 140.258 C 30.322 140.689,30.303 141.417,30.039 142.247 C 29.632 143.528,29.470 143.960,28.550 146.242 C 28.300 146.860,28.172 147.443,28.265 147.536 C 28.579 147.850,26.673 149.609,26.017 149.609 C 25.078 149.609,24.743 150.799,25.522 151.369 C 26.290 151.930,26.321 152.487,25.728 154.975 C 24.976 158.129,25.006 158.063,24.611 157.424 C 24.394 157.073,24.438 156.646,24.729 156.286 C 25.110 155.815,25.088 155.773,24.609 156.055 C 24.101 156.354,24.095 156.311,24.569 155.727 C 24.992 155.206,25.018 154.841,24.682 154.104 C 24.364 153.406,24.364 153.081,24.683 152.884 C 25.229 152.547,23.975 151.563,23.000 151.563 C 20.869 151.563,20.201 155.700,22.266 156.113 C 23.245 156.309,23.438 156.534,23.438 157.483 C 23.438 158.984,22.389 161.450,21.883 161.138 C 21.664 161.002,21.484 161.165,21.484 161.500 C 21.484 161.843,21.816 162.109,22.243 162.109 C 23.358 162.109,23.433 162.459,22.997 165.608 C 22.592 168.526,21.731 170.224,21.354 168.847 C 21.252 168.471,21.168 169.395,21.169 170.898 C 21.169 172.402,20.963 174.863,20.711 176.367 C 20.459 177.871,20.256 179.974,20.261 181.041 C 20.265 182.107,20.095 183.190,19.881 183.447 C 19.622 183.759,19.632 184.000,19.909 184.172 C 20.138 184.313,20.191 184.637,20.026 184.890 C 19.151 186.238,18.321 213.218,19.094 215.165 C 19.322 215.740,19.610 218.672,19.732 221.680 C 19.855 224.688,20.232 228.906,20.569 231.055 C 20.906 233.203,21.158 235.521,21.128 236.205 C 21.097 236.889,21.303 237.593,21.583 237.768 C 22.672 238.446,23.840 246.052,22.978 246.855 C 22.232 247.550,22.235 247.564,23.153 247.794 C 23.880 247.977,24.241 248.526,24.788 250.284 C 25.175 251.524,25.750 253.297,26.068 254.223 C 26.385 255.149,26.553 255.999,26.440 256.112 C 26.112 256.440,27.350 260.310,27.927 260.762 C 28.215 260.987,28.573 261.822,28.722 262.617 C 28.871 263.412,29.126 264.063,29.289 264.063 C 29.730 264.063,30.174 267.082,30.101 269.593 C 30.035 271.869,30.580 272.933,31.017 271.382 C 31.305 270.361,33.193 273.699,33.200 275.240 C 33.202 275.695,33.555 276.513,33.984 277.060 C 34.414 277.606,34.766 278.173,34.766 278.320 C 34.766 278.467,35.101 279.014,35.511 279.535 C 36.125 280.316,36.182 280.675,35.837 281.589 C 35.314 282.975,35.709 284.270,36.463 283.644 C 37.118 283.100,39.160 286.040,38.982 287.271 C 38.854 288.155,38.884 288.210,40.554 290.234 C 42.051 292.048,42.684 293.302,42.433 293.956 C 42.302 294.296,42.425 294.415,42.769 294.284 C 43.116 294.150,43.598 294.646,44.116 295.671 C 44.559 296.548,45.273 297.960,45.703 298.809 C 46.619 300.618,46.647 300.796,45.996 300.638 C 45.728 300.572,45.640 300.592,45.801 300.683 C 45.962 300.773,46.108 301.315,46.125 301.888 C 46.142 302.461,46.241 302.720,46.345 302.463 C 46.449 302.207,46.787 302.094,47.096 302.212 C 47.411 302.333,47.662 302.195,47.669 301.897 C 47.677 301.544,47.868 301.614,48.242 302.108 C 48.551 302.516,48.727 302.972,48.634 303.123 C 48.541 303.273,48.986 303.895,49.623 304.505 C 50.260 305.116,50.781 305.949,50.781 306.358 C 50.781 306.767,51.155 307.404,51.611 307.773 C 52.085 308.157,52.441 308.896,52.441 309.496 C 52.441 310.225,52.645 310.547,53.106 310.547 C 53.471 310.547,54.165 310.967,54.647 311.481 L 55.525 312.415 54.354 312.999 C 53.392 313.479,53.221 313.487,53.391 313.041 C 53.515 312.718,53.346 312.500,52.971 312.500 C 52.185 312.500,52.164 313.036,52.925 313.668 C 53.270 313.955,53.923 314.045,54.537 313.891 C 55.366 313.683,55.522 313.750,55.335 314.238 C 55.188 314.622,55.321 314.844,55.699 314.844 C 56.028 314.844,56.198 314.684,56.077 314.490 C 55.957 314.295,56.193 314.223,56.601 314.330 C 57.010 314.437,57.424 314.942,57.522 315.453 C 57.620 315.964,57.549 316.290,57.365 316.176 C 57.182 316.062,57.031 316.137,57.031 316.341 C 57.031 316.546,57.334 316.829,57.704 316.971 C 58.187 317.157,58.244 317.312,57.905 317.521 C 57.549 317.741,57.588 318.033,58.064 318.711 C 58.522 319.366,58.776 319.478,58.995 319.123 C 59.413 318.447,60.494 318.944,60.922 320.011 C 61.118 320.499,61.290 320.765,61.303 320.602 C 61.334 320.242,63.672 322.282,63.672 322.669 C 63.672 323.126,70.593 330.331,75.170 334.638 C 76.807 336.179,77.966 337.552,77.746 337.688 C 77.525 337.825,77.358 338.146,77.375 338.402 C 77.397 338.737,77.460 338.731,77.602 338.379 C 77.926 337.577,78.356 337.786,81.219 340.137 C 82.723 341.372,84.358 342.667,84.852 343.013 C 85.696 343.607,86.011 344.104,87.052 346.484 C 87.460 347.417,87.468 347.408,87.230 346.289 C 87.004 345.230,87.042 345.169,87.631 345.653 C 87.988 345.948,88.281 346.046,88.281 345.872 C 88.281 345.491,89.423 346.947,89.441 347.351 C 89.448 347.505,89.161 347.519,88.803 347.382 C 88.400 347.228,88.249 347.289,88.407 347.543 C 88.772 348.135,90.570 348.403,90.749 347.892 C 90.833 347.652,91.381 347.936,91.988 348.535 C 92.586 349.126,93.237 349.609,93.436 349.609 C 93.634 349.609,93.680 349.797,93.538 350.026 C 93.397 350.256,93.649 350.540,94.101 350.658 C 94.553 350.776,94.922 350.985,94.922 351.122 C 94.922 351.259,95.493 351.623,96.191 351.929 C 96.890 352.236,97.927 352.982,98.497 353.587 C 99.066 354.192,99.786 354.688,100.097 354.688 C 100.957 354.688,102.910 355.755,103.745 356.682 C 104.156 357.138,105.283 357.910,106.250 358.397 C 109.710 360.143,111.042 360.911,111.808 361.603 C 112.235 361.989,112.936 362.246,113.366 362.175 C 113.796 362.104,114.045 362.212,113.919 362.416 C 113.660 362.834,114.983 364.184,115.321 363.846 C 115.587 363.579,119.055 365.171,119.391 365.714 C 119.523 365.928,119.394 366.250,119.104 366.429 C 118.485 366.811,118.546 366.867,120.218 367.455 C 120.917 367.702,121.390 367.741,121.267 367.542 C 120.775 366.747,122.380 366.734,123.450 367.526 C 124.070 367.984,124.849 368.359,125.179 368.359 C 125.510 368.359,126.107 368.685,126.504 369.083 C 126.908 369.486,128.098 369.921,129.198 370.067 C 130.281 370.211,131.383 370.589,131.647 370.906 C 131.911 371.224,132.369 371.484,132.665 371.484 C 132.961 371.484,133.203 371.671,133.203 371.898 C 133.203 372.126,133.036 372.209,132.832 372.082 C 132.407 371.820,131.544 373.211,131.907 373.574 C 132.039 373.706,132.793 373.450,133.584 373.006 L 135.021 372.198 136.749 372.978 C 137.699 373.407,139.443 373.978,140.625 374.245 C 141.807 374.513,142.967 374.996,143.203 375.318 C 143.477 375.691,143.960 375.817,144.534 375.667 C 145.030 375.538,146.045 375.686,146.789 375.997 C 147.533 376.308,148.428 376.564,148.778 376.565 C 149.128 376.566,149.918 376.830,150.533 377.151 C 151.148 377.472,152.115 377.749,152.681 377.768 L 153.711 377.802 152.612 378.131 C 151.262 378.537,150.330 379.273,150.604 379.717 C 150.820 380.066,152.758 379.358,153.172 378.778 C 153.305 378.591,154.441 378.660,155.711 378.933 C 156.974 379.205,158.447 379.480,158.984 379.543 C 162.301 379.937,164.471 381.116,162.974 381.711 C 162.523 381.890,162.727 381.985,163.597 382.004 C 164.308 382.019,164.810 381.899,164.712 381.738 C 164.615 381.577,164.767 381.231,165.051 380.968 C 165.409 380.638,165.611 380.623,165.710 380.918 C 165.916 381.536,172.767 382.764,174.818 382.550 C 175.833 382.445,176.563 382.531,176.563 382.756 C 176.563 382.969,177.354 383.113,178.320 383.076 C 180.559 382.989,180.384 382.258,178.095 382.131 C 177.145 382.078,175.356 381.859,174.121 381.643 C 172.886 381.427,170.864 381.075,169.629 380.861 C 168.394 380.647,165.977 380.186,164.258 379.836 C 162.539 379.486,160.693 379.114,160.156 379.008 C 142.364 375.506,119.009 365.483,100.927 353.589 C 61.115 327.401,31.530 282.886,23.642 237.305 C 23.308 235.371,22.958 233.525,22.865 233.203 C 22.298 231.240,21.039 218.447,20.713 211.346 C 18.479 162.656,38.334 111.326,72.390 77.755 C 75.051 75.130,75.624 74.219,74.609 74.219 C 74.420 74.219,74.165 74.380,74.044 74.576 M333.276 74.565 C 332.939 74.773,333.070 75.106,333.735 75.730 C 334.606 76.549,335.156 76.335,335.156 75.177 C 335.156 74.784,333.692 74.307,333.276 74.565 M329.562 77.471 C 331.107 78.042,331.333 78.268,331.904 79.813 L 332.362 81.055 332.392 79.785 C 332.431 78.117,331.258 76.944,329.590 76.983 L 328.320 77.013 329.562 77.471 M69.782 79.229 C 69.014 79.997,68.287 80.526,68.166 80.406 C 67.727 79.967,68.762 78.095,69.623 77.770 C 71.161 77.189,71.226 77.784,69.782 79.229 M63.867 80.662 C 63.652 80.733,62.993 80.898,62.402 81.028 C 61.081 81.319,61.037 81.823,62.263 82.626 C 63.619 83.514,65.080 83.055,65.057 81.748 C 65.039 80.753,64.656 80.403,63.867 80.662 M335.106 80.540 C 334.319 82.478,335.967 83.785,337.737 82.626 C 338.963 81.823,338.919 81.320,337.598 81.026 C 337.007 80.894,336.216 80.703,335.840 80.601 C 335.464 80.500,335.134 80.472,335.106 80.540 M333.460 81.816 C 333.314 82.196,333.431 82.310,333.813 82.163 C 334.228 82.004,334.321 82.143,334.155 82.671 C 333.941 83.348,333.956 83.351,334.367 82.712 C 334.808 82.024,334.616 81.250,334.003 81.250 C 333.824 81.250,333.580 81.505,333.460 81.816 M58.980 84.082 C 58.978 84.351,58.867 85.273,58.734 86.133 C 58.534 87.423,58.582 87.610,59.012 87.207 C 59.297 86.938,59.829 86.719,60.192 86.719 C 61.025 86.719,61.531 84.894,60.906 84.142 C 60.342 83.462,58.986 83.420,58.980 84.082 M339.078 84.161 C 338.235 85.177,339.273 87.172,340.779 87.432 C 341.431 87.545,341.489 87.384,341.271 86.065 C 341.135 85.243,341.022 84.351,341.020 84.082 C 341.014 83.411,339.655 83.466,339.078 84.161 M345.330 95.632 C 344.846 95.794,346.720 98.047,347.339 98.047 C 347.513 98.047,347.656 97.434,347.656 96.684 C 347.656 95.309,347.081 95.048,345.330 95.632 M357.375 114.884 C 357.830 115.253,358.203 115.768,358.203 116.028 C 358.203 116.387,358.349 116.381,358.807 116.001 C 359.139 115.725,359.314 115.220,359.197 114.879 C 359.056 114.470,359.195 114.525,359.604 115.039 C 360.210 115.800,360.223 115.801,360.092 115.059 C 359.985 114.450,359.618 114.290,358.252 114.256 C 356.580 114.214,356.563 114.226,357.375 114.884 M70.871 115.579 C 67.438 117.146,65.491 121.203,66.527 124.629 C 66.822 125.607,70.357 131.495,74.382 137.715 C 78.406 143.935,84.576 153.462,88.092 158.887 L 94.486 168.751 94.632 209.669 L 94.778 250.586 95.788 254.688 C 100.581 274.144,114.136 287.583,133.297 291.876 L 137.305 292.773 199.805 292.773 C 258.682 292.773,262.508 292.732,265.820 292.063 C 287.665 287.648,303.063 270.375,305.057 248.047 C 305.586 242.122,305.585 165.889,305.056 159.570 C 303.242 137.925,288.399 120.930,266.797 115.765 C 262.134 114.651,73.298 114.471,70.871 115.579 M34.258 118.606 C 33.643 119.221,34.008 119.973,34.863 119.851 C 35.347 119.783,35.742 119.465,35.742 119.146 C 35.742 118.525,34.713 118.151,34.258 118.606 M364.271 118.728 C 363.894 119.338,364.390 119.922,365.286 119.922 C 365.823 119.922,366.031 119.706,365.942 119.243 C 365.792 118.464,364.651 118.113,364.271 118.728 M362.500 120.671 C 362.500 120.868,362.703 121.096,362.951 121.179 C 363.259 121.282,363.188 121.654,362.723 122.364 C 361.934 123.568,362.205 124.974,363.198 124.830 C 364.282 124.672,364.803 121.534,363.859 120.844 C 363.015 120.227,362.500 120.161,362.500 120.671 M368.832 137.264 C 369.109 137.563,369.466 137.730,369.624 137.634 C 369.783 137.538,369.808 137.732,369.680 138.066 C 369.552 138.399,369.623 138.672,369.838 138.672 C 370.053 138.672,370.334 138.397,370.463 138.061 C 370.604 137.696,370.895 137.569,371.189 137.746 C 371.527 137.949,371.514 137.836,371.144 137.380 C 370.849 137.016,370.095 136.719,369.468 136.719 C 368.513 136.719,368.410 136.807,368.832 137.264 M372.319 144.206 C 372.290 144.565,372.152 145.180,372.013 145.574 C 371.818 146.126,371.870 146.188,372.241 145.846 C 372.506 145.602,372.644 144.987,372.547 144.479 C 372.451 143.970,372.348 143.848,372.319 144.206 M372.135 149.776 C 372.009 150.105,372.156 150.949,372.461 151.652 C 372.768 152.357,373.023 152.629,373.032 152.258 C 373.041 151.823,373.254 151.667,373.636 151.813 C 374.266 152.055,376.172 150.999,376.172 150.408 C 376.172 149.603,372.427 149.017,372.135 149.776 M258.133 152.370 C 267.202 156.902,267.061 170.111,257.898 174.344 L 256.055 175.195 200.000 175.195 L 143.945 175.195 142.129 174.356 C 132.775 170.032,132.811 156.532,142.188 152.177 L 144.336 151.180 200.035 151.176 L 255.735 151.172 258.133 152.370 M376.594 152.892 C 376.106 153.479,376.406 155.435,376.995 155.518 C 377.762 155.625,377.951 155.690,378.479 156.024 C 378.930 156.309,378.983 156.099,378.776 154.846 C 378.638 154.007,378.522 153.101,378.520 152.832 C 378.514 152.170,377.158 152.212,376.594 152.892 M375.805 156.629 C 375.511 157.160,375.294 158.207,375.322 158.956 C 375.350 159.704,375.180 160.436,374.944 160.582 C 374.638 160.770,374.632 161.171,374.922 161.967 L 375.329 163.086 375.387 161.914 C 375.471 160.233,376.118 161.800,376.114 163.672 C 376.112 164.424,376.022 164.819,375.913 164.551 C 375.643 163.882,375.000 163.934,375.000 164.625 C 375.000 166.408,376.214 165.733,376.531 163.774 C 376.714 162.640,376.968 162.276,377.642 162.180 C 378.122 162.111,378.516 161.793,378.516 161.473 C 378.516 161.153,378.349 160.995,378.145 161.121 C 377.590 161.464,376.883 159.879,376.595 157.645 C 376.347 155.717,376.326 155.690,375.805 156.629 M376.439 169.291 C 376.311 169.624,376.362 169.993,376.553 170.111 C 377.051 170.419,377.348 169.779,376.982 169.187 C 376.739 168.794,376.620 168.817,376.439 169.291 M378.622 170.313 C 378.622 171.279,378.698 171.675,378.791 171.191 C 378.884 170.708,378.884 169.917,378.791 169.434 C 378.698 168.950,378.622 169.346,378.622 170.313 M377.655 175.991 C 377.417 176.229,378.356 179.669,378.762 180.047 C 379.106 180.366,378.515 176.433,378.164 176.068 C 378.007 175.903,377.777 175.868,377.655 175.991 M378.385 180.729 C 378.242 180.872,378.125 181.699,378.125 182.565 C 378.125 184.451,378.722 184.070,379.115 181.934 C 379.364 180.579,379.051 180.063,378.385 180.729 M378.906 190.961 C 378.906 191.661,379.069 192.133,379.267 192.010 C 379.466 191.888,379.707 192.009,379.803 192.280 C 379.899 192.552,379.909 192.252,379.825 191.614 C 379.600 189.900,378.906 189.407,378.906 190.961 M257.813 192.802 C 267.500 197.301,267.173 211.479,257.297 215.174 L 255.049 216.016 200.000 216.016 L 144.951 216.016 142.703 215.174 C 132.928 211.517,132.433 197.590,141.914 192.992 L 144.336 191.817 200.000 191.811 L 255.664 191.805 257.813 192.802 M15.013 203.125 C 15.013 208.389,15.068 210.542,15.136 207.910 C 15.203 205.278,15.203 200.972,15.136 198.340 C 15.068 195.708,15.013 197.861,15.013 203.125 M384.766 196.887 C 384.766 199.316,384.633 200.075,384.180 200.249 C 383.350 200.568,383.336 205.677,384.164 205.994 C 384.584 206.156,384.768 207.065,384.865 209.454 C 384.938 211.237,385.033 208.433,385.077 203.223 C 385.120 198.013,385.068 193.750,384.961 193.750 C 384.854 193.750,384.766 195.162,384.766 196.887 M380.109 198.600 C 380.126 199.478,380.235 199.956,380.352 199.663 C 380.530 199.213,380.616 199.213,380.901 199.663 C 381.122 200.013,381.240 199.648,381.244 198.600 C 381.248 197.440,381.090 197.005,380.664 197.005 C 380.234 197.005,380.086 197.429,380.109 198.600 M379.787 204.492 C 379.750 207.410,380.341 211.381,380.441 208.887 C 380.456 208.511,380.645 208.203,380.859 208.203 C 381.087 208.203,381.224 207.106,381.186 205.566 L 381.123 202.930 380.877 205.078 C 380.588 207.603,380.170 206.714,379.959 203.125 C 379.884 201.850,379.814 202.406,379.787 204.492 M380.966 210.938 C 380.966 211.904,381.042 212.300,381.135 211.816 C 381.228 211.333,381.228 210.542,381.135 210.059 C 381.042 209.575,380.966 209.971,380.966 210.938 M17.571 216.016 C 17.451 217.880,17.217 218.945,16.927 218.945 C 16.676 218.945,16.341 219.076,16.182 219.235 C 16.023 219.394,15.656 219.329,15.368 219.089 C 14.937 218.732,14.844 219.215,14.844 221.813 C 14.844 225.274,15.358 226.059,17.304 225.571 C 18.057 225.382,18.187 225.141,18.048 224.194 C 17.922 223.329,18.035 223.047,18.510 223.047 C 19.316 223.047,19.358 221.370,18.569 220.715 C 18.162 220.377,17.963 219.212,17.878 216.663 L 17.759 213.086 17.571 216.016 M382.102 216.321 C 382.048 218.789,381.892 219.609,381.445 219.781 C 380.593 220.108,380.633 223.047,381.490 223.047 C 381.965 223.047,382.078 223.329,381.952 224.194 C 381.813 225.141,381.943 225.382,382.696 225.571 C 384.642 226.059,385.156 225.274,385.156 221.813 C 385.156 219.215,385.063 218.732,384.632 219.089 C 384.344 219.329,383.977 219.394,383.818 219.235 C 383.659 219.076,383.324 218.945,383.073 218.945 C 382.786 218.945,382.535 217.860,382.395 216.016 L 382.172 213.086 382.102 216.321 M379.626 214.551 C 379.542 215.034,379.587 216.045,379.725 216.797 C 379.937 217.956,379.983 217.822,380.027 215.918 C 380.079 213.614,379.897 212.990,379.626 214.551 M378.978 217.383 C 378.907 219.236,379.459 220.449,379.792 219.173 C 379.909 218.725,379.857 218.450,379.675 218.562 C 379.494 218.675,379.276 218.103,379.191 217.293 L 379.038 215.820 378.978 217.383 M378.329 224.191 C 378.196 224.611,378.111 225.712,378.141 226.638 C 378.172 227.563,378.004 228.934,377.770 229.685 C 377.089 231.867,377.177 232.644,378.012 231.809 C 378.786 231.036,378.823 230.876,379.155 226.912 C 379.396 224.030,378.900 222.393,378.329 224.191 M209.076 233.480 C 218.445 237.849,218.473 250.972,209.123 255.638 L 207.113 256.641 175.725 256.640 L 144.336 256.640 141.992 255.527 C 132.182 250.870,132.969 236.678,143.243 232.981 C 144.458 232.543,150.375 232.462,175.977 232.532 L 207.227 232.617 209.076 233.480 M376.614 236.426 C 376.342 237.769,376.024 239.263,375.908 239.746 C 375.785 240.256,375.878 240.625,376.130 240.625 C 376.368 240.625,376.563 240.361,376.563 240.039 C 376.563 239.717,376.731 239.453,376.937 239.453 C 377.144 239.453,377.314 238.970,377.317 238.379 C 377.319 237.788,377.433 236.558,377.569 235.645 C 377.955 233.053,377.168 233.697,376.614 236.426 M378.207 236.952 C 377.883 237.305,377.856 237.500,378.133 237.500 C 378.369 237.500,378.438 237.720,378.286 237.988 C 378.077 238.359,378.127 238.369,378.495 238.030 C 378.761 237.784,378.919 237.318,378.845 236.994 C 378.730 236.490,378.638 236.484,378.207 236.952 M375.258 242.871 C 375.087 243.354,375.059 244.102,375.195 244.531 C 375.338 244.979,375.266 245.313,375.026 245.313 C 374.797 245.313,374.609 245.938,374.609 246.703 C 374.609 248.566,375.282 248.063,375.597 245.964 C 375.937 243.691,375.708 241.596,375.258 242.871 M375.078 251.500 C 375.247 253.470,376.172 253.606,376.172 251.660 C 376.172 250.539,376.010 250.130,375.566 250.130 C 375.112 250.130,374.990 250.473,375.078 251.500 M373.290 251.104 C 373.117 251.603,373.079 252.116,373.207 252.243 C 373.611 252.648,373.896 252.051,373.748 251.108 L 373.604 250.195 373.290 251.104 M372.482 254.111 C 372.166 254.869,371.789 256.143,371.645 256.943 C 371.500 257.744,371.215 258.610,371.009 258.870 C 370.804 259.129,370.761 259.544,370.915 259.792 C 371.068 260.040,370.963 260.387,370.680 260.561 C 370.397 260.736,370.129 261.419,370.083 262.079 C 370.037 262.739,370.158 263.181,370.351 263.062 C 370.545 262.942,370.703 262.585,370.703 262.268 C 370.703 261.951,370.982 261.266,371.323 260.746 C 371.664 260.226,371.829 259.616,371.690 259.392 C 371.552 259.168,371.616 258.984,371.834 258.984 C 372.052 258.984,372.330 258.325,372.452 257.520 C 372.666 256.110,373.022 254.867,373.627 253.418 C 373.797 253.010,373.740 252.734,373.485 252.734 C 373.250 252.734,372.798 253.354,372.482 254.111 M21.490 255.774 C 21.487 256.049,21.760 256.380,22.097 256.509 C 22.783 256.773,23.740 256.032,23.293 255.584 C 23.134 255.426,22.838 255.555,22.635 255.871 C 22.311 256.375,22.219 256.374,21.881 255.859 C 21.611 255.449,21.495 255.423,21.490 255.774 M368.258 266.683 C 368.148 267.068,367.919 267.721,367.750 268.134 C 367.508 268.725,367.575 268.835,368.063 268.648 C 368.560 268.457,368.736 268.793,368.949 270.338 C 369.277 272.726,369.936 272.485,369.883 269.996 C 369.817 266.905,368.793 264.818,368.258 266.683 M367.034 269.759 C 366.695 270.641,366.728 270.705,367.383 270.454 C 367.705 270.330,367.969 269.984,367.969 269.685 C 367.969 268.945,367.327 268.995,367.034 269.759 M365.331 274.210 C 365.063 274.638,364.845 275.299,364.846 275.678 C 364.848 276.141,365.044 275.993,365.443 275.228 C 366.137 273.896,366.046 273.065,365.331 274.210 M364.273 277.089 C 363.877 277.379,363.666 277.800,363.805 278.025 C 363.944 278.250,363.795 278.535,363.474 278.658 C 362.717 278.948,362.718 279.688,363.477 279.688 C 363.799 279.688,364.064 279.468,364.065 279.199 C 364.066 278.931,364.319 278.228,364.628 277.637 C 365.271 276.404,365.251 276.374,364.273 277.089 M361.022 283.496 C 360.323 284.946,359.754 286.353,359.758 286.621 C 359.762 286.890,359.561 287.109,359.310 287.109 C 359.059 287.109,358.966 287.221,359.102 287.357 C 359.238 287.493,359.006 288.041,358.586 288.575 C 358.167 289.108,357.919 289.700,358.036 289.890 C 358.153 290.079,358.072 290.234,357.855 290.234 C 357.638 290.234,356.801 291.421,355.996 292.871 C 355.190 294.321,353.704 296.812,352.693 298.405 C 351.660 300.034,350.954 301.558,351.080 301.886 C 351.253 302.337,351.374 302.279,351.616 301.625 C 352.221 299.990,352.922 300.794,352.839 303.027 C 352.829 303.296,352.959 303.516,353.127 303.516 C 353.512 303.516,353.906 302.511,353.906 301.531 C 353.906 301.118,354.126 300.764,354.395 300.742 C 354.663 300.721,354.444 300.581,353.908 300.432 C 353.372 300.283,352.872 299.840,352.797 299.448 C 352.721 299.056,352.808 298.828,352.990 298.940 C 353.172 299.052,353.760 298.261,354.297 297.182 C 354.834 296.103,355.672 294.789,356.159 294.262 C 356.960 293.397,357.310 292.502,357.393 291.113 C 357.409 290.845,357.590 290.625,357.795 290.625 C 358.378 290.625,360.196 288.661,359.962 288.283 C 359.847 288.097,359.932 287.834,360.150 287.699 C 360.368 287.564,360.547 287.118,360.547 286.708 C 360.547 286.092,361.203 284.660,362.388 282.686 C 362.495 282.509,362.839 282.732,363.153 283.181 C 363.833 284.151,364.453 283.900,364.453 282.657 C 364.453 281.944,363.201 280.859,362.379 280.859 C 362.332 280.859,361.722 282.046,361.022 283.496 M42.059 296.647 C 41.901 297.059,41.950 297.575,42.168 297.793 C 42.727 298.352,42.883 298.015,42.594 296.875 C 42.370 295.989,42.320 295.968,42.059 296.647 M357.336 297.022 C 357.228 297.585,357.281 298.047,357.453 298.047 C 358.018 298.047,358.253 297.285,357.888 296.634 C 357.591 296.102,357.499 296.166,357.336 297.022 M349.445 303.590 C 349.116 304.060,348.918 304.517,349.006 304.605 C 349.267 304.866,349.966 304.310,350.402 303.494 C 350.970 302.434,350.201 302.511,349.445 303.590 M347.690 306.014 C 347.322 306.457,347.331 306.562,347.732 306.503 C 348.272 306.424,348.620 305.911,348.330 305.622 C 348.236 305.527,347.948 305.704,347.690 306.014 M345.553 309.013 C 344.784 310.314,344.860 310.696,345.812 310.331 C 346.596 310.030,346.964 309.074,346.568 308.367 C 346.333 307.947,346.092 308.100,345.553 309.013 M343.615 311.652 C 342.806 312.547,342.769 313.441,343.555 313.140 C 343.978 312.978,344.141 313.183,344.141 313.879 C 344.141 314.410,344.311 314.844,344.519 314.844 C 344.727 314.844,344.793 314.571,344.665 314.238 C 344.478 313.750,344.634 313.683,345.463 313.891 C 346.077 314.045,346.730 313.955,347.075 313.668 C 348.093 312.824,347.706 312.508,345.950 312.749 C 344.093 313.003,343.343 312.485,344.155 311.506 C 344.838 310.683,344.380 310.806,343.615 311.652 M340.625 315.494 C 338.578 318.185,338.369 318.616,339.488 317.832 C 340.693 316.988,341.122 317.017,340.835 317.922 C 340.504 318.964,341.670 319.326,342.195 318.345 C 342.504 317.768,342.481 317.575,342.104 317.566 C 341.785 317.558,341.855 317.361,342.297 317.026 C 342.932 316.544,342.936 316.477,342.347 316.251 C 341.865 316.066,341.761 315.708,341.935 314.838 C 342.229 313.364,342.254 313.352,340.625 315.494 M52.506 316.937 C 51.944 318.401,52.490 319.336,53.906 319.336 C 55.130 319.336,55.262 319.235,55.165 318.368 C 54.995 316.856,52.958 315.760,52.506 316.937 M345.974 316.682 C 345.131 316.898,344.339 318.714,344.860 319.235 C 345.794 320.169,347.461 319.378,347.461 318.001 C 347.461 316.622,347.181 316.374,345.974 316.682 M335.114 322.147 L 332.254 325.544 334.096 324.277 C 335.109 323.580,335.938 322.849,335.938 322.654 C 335.938 322.458,336.641 321.559,337.500 320.656 C 339.246 318.820,339.284 318.750,338.519 318.750 C 338.219 318.750,336.688 320.279,335.114 322.147 M338.573 321.694 C 338.354 322.841,338.817 323.635,339.470 323.232 C 339.792 323.033,339.867 323.084,339.686 323.377 C 339.532 323.625,339.566 323.828,339.760 323.828 C 340.156 323.828,341.622 322.315,341.371 322.166 C 339.124 320.830,338.751 320.768,338.573 321.694 M60.863 321.936 C 60.550 322.705,61.878 324.127,62.289 323.463 C 62.430 323.234,62.284 323.047,61.964 323.047 C 61.644 323.047,61.325 322.651,61.254 322.168 C 61.149 321.450,61.078 321.408,60.863 321.936 M59.133 324.005 C 58.684 325.174,59.741 325.764,60.934 325.010 C 61.398 324.717,61.418 324.543,61.032 324.157 C 60.646 323.771,60.547 323.807,60.547 324.336 C 60.547 324.701,60.263 325.000,59.915 325.000 C 59.476 325.000,59.346 324.762,59.488 324.219 C 59.723 323.319,59.457 323.159,59.133 324.005 M329.765 327.994 C 327.399 330.571,327.169 331.046,329.115 329.337 C 329.875 328.671,330.673 328.125,330.890 328.125 C 331.107 328.125,331.233 327.817,331.169 327.441 C 331.106 327.065,331.245 326.792,331.478 326.834 C 331.711 326.876,331.901 326.656,331.901 326.345 C 331.901 325.610,332.081 325.471,329.765 327.994 M64.844 327.986 C 64.844 329.076,66.335 330.434,66.767 329.737 C 66.996 329.366,67.136 329.448,67.292 330.046 C 67.409 330.494,67.348 330.763,67.156 330.644 C 66.963 330.525,66.911 330.701,67.038 331.034 C 67.166 331.368,67.384 331.643,67.522 331.646 C 67.660 331.649,68.173 331.758,68.662 331.889 C 69.836 332.204,69.819 329.831,68.645 329.459 C 68.248 329.333,67.760 328.799,67.559 328.271 C 67.262 327.488,67.062 327.383,66.470 327.700 C 65.969 327.968,65.605 327.949,65.294 327.638 C 64.954 327.298,64.844 327.383,64.844 327.986 M332.909 327.571 C 333.048 327.709,332.642 328.374,332.009 329.048 C 330.865 330.266,330.228 331.531,330.582 331.884 C 330.937 332.239,332.758 331.566,332.975 330.999 C 333.096 330.685,333.037 330.525,332.844 330.644 C 332.652 330.763,332.591 330.494,332.708 330.046 C 332.864 329.448,333.004 329.366,333.233 329.737 C 333.478 330.133,333.720 330.085,334.351 329.514 C 335.572 328.409,335.385 327.527,333.907 327.415 C 333.220 327.362,332.771 327.433,332.909 327.571 M323.867 333.748 C 323.290 334.362,323.136 334.774,323.418 334.949 C 323.654 335.095,323.822 335.069,323.792 334.892 C 323.664 334.157,323.861 333.822,324.153 334.282 C 324.385 334.648,324.702 334.522,325.387 333.793 C 326.264 332.859,326.271 332.813,325.527 332.813 C 325.097 332.813,324.350 333.233,323.867 333.748 M71.094 334.291 C 71.094 335.340,72.597 336.665,73.017 335.987 C 73.246 335.616,73.386 335.698,73.542 336.296 C 73.659 336.744,73.598 337.013,73.406 336.894 C 73.213 336.775,73.161 336.951,73.288 337.284 C 73.416 337.618,73.634 337.893,73.772 337.896 C 73.910 337.899,74.463 338.017,75.000 338.159 C 75.911 338.399,75.937 338.368,75.391 337.688 C 75.068 337.287,75.014 337.085,75.269 337.238 C 75.576 337.422,75.713 337.233,75.671 336.685 C 75.637 336.227,75.232 335.709,74.772 335.534 C 74.311 335.359,73.824 334.928,73.689 334.575 C 73.553 334.223,73.134 333.985,72.757 334.047 C 72.379 334.109,71.851 334.022,71.582 333.854 C 71.255 333.649,71.094 333.793,71.094 334.291 M328.408 333.850 C 328.252 334.098,327.788 334.214,327.377 334.106 C 326.885 333.978,326.480 334.191,326.192 334.729 C 325.951 335.179,325.408 335.547,324.986 335.547 C 323.987 335.547,324.008 336.136,325.034 336.855 L 325.849 337.426 325.005 337.694 C 323.848 338.061,324.278 338.379,325.512 338.070 C 326.058 337.932,326.605 337.563,326.725 337.249 C 326.846 336.935,326.787 336.775,326.594 336.894 C 326.402 337.013,326.341 336.744,326.458 336.296 C 326.619 335.679,326.750 335.608,326.994 336.002 C 327.448 336.733,329.034 335.123,328.837 334.131 C 328.742 333.649,328.595 333.553,328.408 333.850 M320.670 337.012 C 319.962 337.817,319.274 338.477,319.139 338.477 C 319.005 338.477,317.940 339.335,316.772 340.385 C 315.604 341.434,314.956 342.072,315.332 341.802 C 315.708 341.532,316.016 341.432,316.016 341.580 C 316.016 341.901,319.662 339.017,319.872 338.530 C 319.951 338.344,320.360 337.905,320.780 337.553 C 321.531 336.924,322.454 335.547,322.125 335.547 C 322.032 335.547,321.377 336.206,320.670 337.012 M80.141 341.891 C 79.367 342.664,79.583 344.141,80.469 344.141 C 81.073 344.141,81.250 343.880,81.250 342.992 C 81.250 341.677,80.800 341.231,80.141 341.891 M319.007 341.670 C 318.366 342.311,318.754 344.141,319.531 344.141 C 320.093 344.141,320.313 343.880,320.313 343.212 C 320.313 342.242,319.452 341.225,319.007 341.670 M311.809 344.356 C 310.037 345.597,309.928 346.646,311.693 345.479 C 312.566 344.900,313.281 344.275,313.281 344.089 C 313.281 343.585,312.779 343.676,311.809 344.356 M310.352 347.656 C 309.598 347.980,309.601 347.993,310.426 348.019 C 310.897 348.035,311.391 347.871,311.523 347.656 C 311.809 347.194,311.427 347.194,310.352 347.656 M83.667 349.316 C 83.769 350.378,83.949 350.586,84.766 350.586 C 85.895 350.586,85.950 349.376,84.859 348.535 C 83.847 347.755,83.536 347.958,83.667 349.316 M315.141 348.535 C 314.050 349.376,314.105 350.586,315.234 350.586 C 316.051 350.586,316.231 350.378,316.333 349.316 C 316.464 347.958,316.153 347.755,315.141 348.535 M305.401 349.482 C 304.652 349.680,303.292 351.563,303.897 351.563 C 304.117 351.563,304.297 351.399,304.297 351.198 C 304.297 350.998,304.632 350.727,305.042 350.597 C 305.452 350.467,305.886 350.104,306.006 349.790 C 306.127 349.476,306.187 349.239,306.140 349.264 C 306.093 349.289,305.761 349.387,305.401 349.482 M96.111 353.981 C 96.102 354.559,96.281 355.148,96.510 355.289 C 97.162 355.692,97.197 355.371,96.642 354.102 L 96.129 352.930 96.111 353.981 M303.569 353.594 C 303.540 353.959,303.229 354.418,302.880 354.614 C 302.409 354.877,302.367 355.046,302.718 355.263 C 303.410 355.691,304.000 354.921,303.797 353.854 C 303.698 353.331,303.599 353.218,303.569 353.594 M291.624 358.430 C 290.990 358.894,290.971 358.984,291.504 358.984 C 291.854 358.984,292.257 358.797,292.399 358.568 C 292.813 357.898,292.442 357.832,291.624 358.430 M104.129 359.989 C 103.728 360.282,103.269 360.441,103.109 360.342 C 102.507 359.969,102.291 362.224,102.873 362.806 C 103.514 363.447,106.453 363.145,106.042 362.480 C 105.916 362.276,105.999 362.109,106.227 362.109 C 106.454 362.109,106.597 361.901,106.543 361.646 C 106.489 361.392,106.948 361.137,107.565 361.080 C 109.402 360.911,109.323 360.466,107.479 360.597 C 106.260 360.684,105.649 360.540,105.318 360.088 C 104.922 359.547,104.753 359.533,104.129 359.989 M294.644 360.120 C 294.331 360.622,293.847 360.748,292.718 360.622 C 291.889 360.529,291.337 360.586,291.492 360.748 C 291.646 360.910,292.173 361.070,292.663 361.104 C 293.154 361.137,293.511 361.377,293.457 361.637 C 293.403 361.897,293.546 362.109,293.773 362.109 C 294.001 362.109,294.084 362.276,293.958 362.480 C 293.831 362.684,294.364 362.970,295.140 363.116 C 296.938 363.453,297.821 362.707,297.437 361.176 C 297.291 360.595,297.075 360.217,296.957 360.335 C 296.839 360.453,296.364 360.302,295.903 360.000 C 295.163 359.515,295.013 359.530,294.644 360.120 M104.392 361.914 C 104.220 362.817,103.554 363.190,103.037 362.673 C 102.596 362.231,103.238 360.938,103.898 360.938 C 104.414 360.938,104.534 361.174,104.392 361.914 M296.982 361.696 C 297.202 362.535,296.989 362.891,296.269 362.891 C 296.008 362.891,295.710 362.451,295.608 361.914 C 295.377 360.708,296.670 360.503,296.982 361.696 M278.310 366.033 C 278.171 366.257,278.270 366.696,278.530 367.009 C 279.036 367.619,278.854 367.710,277.377 367.585 C 276.471 367.509,276.462 367.533,277.132 368.203 C 277.802 368.874,277.801 368.913,277.099 369.189 C 276.499 369.425,276.556 369.481,277.418 369.504 C 277.996 369.519,278.595 369.328,278.748 369.080 C 278.921 368.801,278.855 368.735,278.576 368.908 C 278.328 369.061,278.125 369.011,278.125 368.795 C 278.125 368.245,279.724 367.188,280.556 367.188 C 281.435 367.188,281.439 366.831,280.566 366.169 C 279.740 365.541,278.654 365.476,278.310 366.033 M121.728 368.569 C 121.454 369.284,122.242 369.661,123.507 369.420 C 124.329 369.263,124.314 369.242,123.352 369.194 C 122.580 369.155,122.351 368.981,122.515 368.555 C 122.639 368.232,122.564 367.969,122.349 367.969 C 122.134 367.969,121.855 368.239,121.728 368.569 M264.063 371.870 C 264.063 373.042,264.549 373.456,265.114 372.765 C 265.651 372.109,265.674 372.116,265.515 372.873 C 265.319 373.809,267.619 374.214,268.583 373.414 C 269.329 372.795,268.240 371.713,267.157 371.996 C 266.725 372.109,265.853 372.052,265.217 371.870 C 264.582 371.688,264.063 371.688,264.063 371.870 M246.966 377.544 C 245.538 378.293,245.503 378.518,246.875 378.125 C 248.318 377.711,248.633 377.499,248.171 377.251 C 247.995 377.156,247.453 377.288,246.966 377.544 M230.469 381.445 C 230.048 381.952,230.160 381.997,231.300 381.782 C 233.419 381.382,234.004 380.885,232.372 380.871 C 231.576 380.865,230.742 381.116,230.469 381.445 M226.660 381.899 C 225.681 382.294,226.207 382.652,227.539 382.496 C 228.291 382.408,228.906 382.180,228.906 381.989 C 228.906 381.622,227.488 381.565,226.660 381.899 M235.063 381.917 C 235.549 382.010,236.252 382.007,236.626 381.909 C 236.999 381.811,236.602 381.735,235.742 381.739 C 234.883 381.743,234.577 381.823,235.063 381.917 M220.313 382.617 C 219.787 383.250,220.019 383.324,221.387 382.957 C 221.870 382.827,222.266 382.566,222.266 382.376 C 222.266 381.810,220.837 381.986,220.313 382.617 M183.669 383.232 C 183.746 383.463,183.936 383.639,184.092 383.623 C 184.248 383.607,184.946 383.591,185.645 383.588 C 186.608 383.583,186.773 383.490,186.328 383.203 C 185.530 382.687,183.494 382.710,183.669 383.232 M187.695 383.594 C 188.762 384.052,189.063 384.052,189.063 383.594 C 189.063 383.379,188.579 383.215,187.988 383.231 C 187.036 383.255,187.003 383.296,187.695 383.594 M211.328 383.598 C 209.694 383.937,210.040 384.074,212.825 384.193 C 213.970 384.242,214.761 384.147,214.582 383.982 C 214.015 383.457,212.738 383.307,211.328 383.598 M198.931 384.265 C 199.525 384.354,200.404 384.352,200.884 384.259 C 201.365 384.167,200.879 384.093,199.805 384.096 C 198.730 384.099,198.337 384.175,198.931 384.265 M193.848 385.034 C 192.075 385.118,190.625 385.357,190.625 385.563 C 190.625 385.944,192.508 386.004,202.902 385.955 C 208.255 385.930,209.402 385.823,208.952 385.390 C 208.686 385.135,197.336 384.867,193.848 385.034 M209.570 387.109 C 208.964 388.090,210.051 388.279,215.941 388.214 C 221.214 388.156,221.583 388.115,218.586 387.921 C 216.317 387.774,215.046 387.525,214.941 387.207 C 214.743 386.611,209.932 386.524,209.570 387.109 M186.426 388.175 C 187.231 388.259,188.550 388.259,189.355 388.175 C 190.161 388.091,189.502 388.022,187.891 388.022 C 186.279 388.022,185.620 388.091,186.426 388.175 " stroke="none" fill="#f3f3f3" fill-rule="evenodd"></path><path id="path2" d="M191.704 22.151 C 192.190 22.245,192.893 22.241,193.266 22.143 C 193.640 22.046,193.242 21.969,192.383 21.974 C 191.523 21.978,191.218 22.058,191.704 22.151 M206.938 22.151 C 207.424 22.245,208.127 22.241,208.501 22.143 C 208.874 22.046,208.477 21.969,207.617 21.974 C 206.758 21.978,206.452 22.058,206.938 22.151 M180.319 25.143 C 180.143 25.815,180.317 25.852,182.544 25.626 C 190.892 24.779,211.423 24.993,219.296 26.009 C 231.227 27.550,235.088 28.276,245.104 30.861 C 259.896 34.679,281.816 43.561,289.453 48.831 C 291.477 50.227,292.971 50.851,292.719 50.195 C 292.560 49.780,292.669 49.669,293.081 49.827 C 293.406 49.951,293.771 49.892,293.892 49.695 C 294.014 49.498,293.548 49.321,292.858 49.302 C 292.050 49.279,291.410 48.979,291.066 48.461 C 290.771 48.019,290.223 47.656,289.849 47.656 C 289.474 47.656,288.748 47.326,288.235 46.922 C 287.721 46.518,286.423 45.801,285.350 45.328 C 284.277 44.855,283.135 44.309,282.813 44.115 C 282.490 43.921,281.611 43.490,280.859 43.157 C 280.107 42.825,279.266 42.252,278.988 41.884 C 278.599 41.367,278.415 41.328,278.177 41.712 C 277.947 42.084,277.495 41.912,276.381 41.027 C 275.562 40.376,274.521 39.830,274.067 39.813 C 273.614 39.796,273.462 39.693,273.730 39.585 C 273.999 39.477,274.219 39.218,274.219 39.011 C 274.219 38.768,273.977 38.768,273.542 39.012 C 272.855 39.396,271.424 38.825,269.767 37.504 C 269.202 37.054,268.986 37.030,268.856 37.402 C 268.762 37.671,268.529 37.891,268.339 37.891 C 268.149 37.891,268.098 37.618,268.226 37.285 C 268.411 36.803,268.258 36.729,267.476 36.926 C 266.762 37.105,266.350 36.968,265.962 36.421 C 265.211 35.363,263.558 34.522,263.365 35.100 C 263.085 35.941,257.813 34.203,257.813 33.270 C 257.813 32.924,256.379 32.294,255.776 32.375 C 255.622 32.396,255.597 32.152,255.719 31.835 C 255.846 31.504,255.665 31.151,255.297 31.010 C 254.431 30.677,254.078 31.102,254.649 31.789 C 255.038 32.258,254.892 32.327,253.741 32.220 C 251.974 32.056,250.781 31.672,250.781 31.268 C 250.781 31.092,249.987 30.829,249.016 30.683 C 247.820 30.504,247.334 30.269,247.511 29.955 C 247.689 29.639,247.604 29.647,247.245 29.980 C 246.438 30.729,245.533 30.567,244.338 29.460 C 243.574 28.752,243.165 28.589,242.964 28.914 C 242.764 29.238,242.456 29.261,241.944 28.992 C 241.541 28.780,240.442 28.479,239.503 28.323 C 238.303 28.124,237.738 27.821,237.602 27.301 C 237.399 26.525,236.719 26.270,236.719 26.970 C 236.719 27.224,235.946 27.311,234.668 27.200 C 233.540 27.102,232.397 27.007,232.129 26.988 C 231.400 26.936,231.539 26.258,232.324 26.034 C 232.700 25.927,232.217 25.929,231.250 26.039 C 229.057 26.287,229.335 26.273,227.809 26.218 C 227.098 26.193,226.606 26.027,226.716 25.850 C 226.825 25.672,225.496 25.563,223.761 25.607 C 221.116 25.673,220.488 25.566,219.865 24.944 C 219.292 24.370,218.857 24.270,217.956 24.503 C 217.315 24.670,214.638 24.671,212.008 24.507 C 202.059 23.885,180.536 24.317,180.319 25.143 M173.087 26.113 C 172.541 26.475,172.101 26.554,171.941 26.319 C 171.797 26.109,170.750 25.902,169.613 25.858 L 167.546 25.780 168.315 26.604 C 169.077 27.423,169.113 27.424,173.382 26.800 C 175.747 26.455,177.879 26.172,178.121 26.172 C 178.364 26.172,178.457 26.002,178.328 25.794 C 177.970 25.214,174.084 25.450,173.087 26.113 M193.555 26.435 C 184.510 26.667,167.731 28.846,160.850 30.682 C 159.501 31.042,157.432 31.561,156.250 31.836 C 147.849 33.790,139.063 36.750,129.297 40.916 C 126.731 42.011,122.072 44.163,121.484 44.525 C 121.162 44.723,119.316 45.682,117.383 46.656 C 109.316 50.716,98.404 57.679,91.046 63.458 C 89.418 64.737,87.910 65.916,87.695 66.078 C 45.084 98.160,18.148 158.940,21.824 214.713 C 30.198 341.741,163.340 419.921,277.539 364.867 C 387.332 311.937,412.844 166.748,327.639 79.758 C 322.712 74.727,315.523 68.191,312.305 65.815 C 310.652 64.595,309.575 63.740,308.843 63.068 C 306.796 61.187,293.523 52.312,289.432 50.089 C 288.262 49.453,286.689 48.571,285.938 48.129 C 283.338 46.603,274.186 42.151,271.181 40.951 C 269.522 40.289,267.197 39.264,266.016 38.672 C 264.834 38.081,263.258 37.465,262.513 37.303 C 261.768 37.142,260.889 36.883,260.560 36.728 C 256.284 34.717,242.577 31.111,230.859 28.915 C 223.724 27.578,203.759 25.934,198.633 26.261 C 197.988 26.302,195.703 26.380,193.555 26.435 M165.178 26.928 C 165.095 27.177,164.030 27.484,162.811 27.610 C 160.856 27.812,160.663 27.907,161.173 28.416 C 161.682 28.925,162.045 28.919,164.256 28.364 C 165.634 28.018,167.122 27.734,167.561 27.734 C 168.000 27.734,168.359 27.563,168.359 27.354 C 168.359 27.136,167.840 27.077,167.148 27.215 C 166.365 27.372,165.829 27.283,165.633 26.966 C 165.412 26.608,165.288 26.597,165.178 26.928 M154.297 28.864 C 154.297 29.102,154.561 29.297,154.883 29.297 C 155.205 29.297,155.469 29.488,155.469 29.722 C 155.469 30.004,156.025 30.055,157.129 29.873 C 159.890 29.418,160.205 28.931,157.747 28.918 C 156.529 28.912,155.255 28.800,154.915 28.669 C 154.575 28.539,154.297 28.627,154.297 28.864 M152.352 29.872 C 152.090 30.189,151.289 30.558,150.574 30.692 C 149.411 30.910,148.287 32.031,149.231 32.031 C 149.439 32.031,149.609 31.872,149.609 31.677 C 149.609 31.482,149.961 31.415,150.391 31.527 C 150.827 31.642,151.172 31.539,151.172 31.296 C 151.172 31.056,151.574 30.859,152.065 30.859 C 152.697 30.859,152.958 30.632,152.958 30.078 C 152.958 29.144,152.957 29.144,152.352 29.872 M142.618 32.794 C 141.405 33.414,141.363 33.491,142.130 33.692 C 142.668 33.833,142.877 33.762,142.713 33.496 C 142.552 33.235,142.741 33.155,143.219 33.280 C 143.764 33.422,143.999 33.272,144.038 32.755 C 144.068 32.357,144.059 32.050,144.019 32.074 C 143.978 32.097,143.348 32.421,142.618 32.794 M132.422 36.719 L 131.445 37.031 132.520 37.070 C 133.110 37.092,133.594 36.934,133.594 36.719 C 133.594 36.504,133.550 36.346,133.496 36.367 C 133.442 36.388,132.959 36.547,132.422 36.719 M293.945 51.409 C 295.270 52.433,296.875 53.168,296.875 52.752 C 296.875 52.371,294.092 50.769,293.473 50.794 C 293.303 50.801,293.516 51.078,293.945 51.409 M297.266 53.299 C 297.266 53.395,298.276 54.130,299.512 54.933 C 300.747 55.735,302.021 56.576,302.344 56.802 C 302.732 57.074,302.699 56.941,302.246 56.408 C 301.870 55.965,301.563 55.476,301.563 55.322 C 301.563 54.664,299.327 53.149,298.340 53.137 C 297.749 53.131,297.266 53.203,297.266 53.299 M303.727 57.799 C 304.227 58.301,304.372 58.295,304.912 57.755 C 305.472 57.196,305.420 57.144,304.342 57.183 C 303.302 57.221,303.226 57.297,303.727 57.799 M305.859 59.250 C 305.859 59.817,311.134 63.206,311.387 62.801 C 311.769 62.191,310.423 61.088,308.931 60.790 C 308.350 60.674,307.773 60.258,307.649 59.865 C 307.476 59.320,305.859 58.764,305.859 59.250 M85.547 63.453 C 85.547 63.909,85.346 64.069,84.961 63.921 C 84.639 63.798,84.375 63.867,84.375 64.075 C 84.375 64.283,84.644 64.453,84.973 64.453 C 85.611 64.453,86.198 63.411,85.790 63.004 C 85.656 62.870,85.547 63.072,85.547 63.453 M313.867 65.448 C 314.512 65.982,315.317 66.679,315.658 66.998 C 317.034 68.288,316.720 67.470,315.280 66.016 C 314.429 65.156,313.500 64.459,313.214 64.465 C 312.929 64.472,313.223 64.914,313.867 65.448 M319.922 70.289 C 319.922 70.714,320.659 71.231,321.430 71.348 C 321.747 71.396,321.635 71.124,321.153 70.675 C 320.259 69.842,319.922 69.736,319.922 70.289 M342.158 93.069 C 343.266 94.323,343.359 94.355,343.359 93.490 C 343.359 93.132,343.242 92.956,343.098 93.100 C 342.954 93.244,342.471 93.054,342.024 92.679 C 341.432 92.183,341.468 92.289,342.158 93.069 M46.484 104.968 C 46.484 105.433,46.672 105.929,46.901 106.071 C 47.638 106.526,47.755 105.937,47.110 105.016 L 46.484 104.123 46.484 104.968 M266.924 114.961 C 289.155 120.503,303.833 137.245,305.861 159.375 C 306.624 167.694,306.183 248.891,305.353 252.959 C 301.221 273.210,286.661 288.191,266.790 292.638 L 262.695 293.555 200.000 293.555 L 137.305 293.555 133.203 292.643 C 112.270 287.988,97.580 272.107,94.300 250.586 C 93.873 247.787,93.763 239.116,93.757 208.056 L 93.750 169.041 80.326 148.290 C 65.919 126.020,65.861 125.924,65.469 123.758 C 64.874 120.466,67.211 116.291,70.486 114.795 C 72.840 113.720,262.587 113.879,266.924 114.961 M37.815 119.871 C 37.703 120.632,37.836 121.277,38.161 121.547 C 38.582 121.896,38.634 121.841,38.419 121.280 C 38.233 120.795,38.291 120.663,38.605 120.857 C 39.199 121.224,39.165 120.743,38.516 119.571 L 37.996 118.634 37.815 119.871 M361.533 119.502 C 361.391 119.948,361.024 120.313,360.716 120.313 C 360.408 120.313,360.156 120.472,360.156 120.667 C 360.156 120.861,360.493 120.932,360.905 120.825 C 361.575 120.650,361.638 120.809,361.499 122.326 L 361.344 124.023 361.751 122.656 C 362.366 120.590,362.155 117.541,361.533 119.502 M365.011 125.737 C 365.011 126.177,365.214 126.396,365.513 126.281 C 365.790 126.175,366.016 125.843,366.016 125.544 C 366.016 125.245,365.790 125.000,365.513 125.000 C 365.237 125.000,365.011 125.332,365.011 125.737 M363.506 127.293 C 363.919 127.695,364.327 127.963,364.411 127.889 C 364.657 127.671,363.616 126.563,363.165 126.563 C 362.939 126.563,363.092 126.891,363.506 127.293 M27.734 141.046 C 27.734 141.633,28.507 141.841,29.196 141.439 C 29.948 141.002,29.908 140.960,28.613 140.824 C 28.130 140.773,27.734 140.873,27.734 141.046 M371.286 147.117 C 371.362 147.521,371.460 147.896,371.503 147.949 C 371.547 148.003,371.604 148.208,371.631 148.405 C 371.658 148.602,371.836 148.910,372.028 149.089 C 372.473 149.505,371.941 147.194,371.484 146.726 C 371.294 146.532,371.208 146.702,371.286 147.117 M380.420 216.065 C 380.330 217.904,380.437 219.196,380.700 219.441 C 381.007 219.727,381.081 219.000,380.963 216.853 C 380.738 212.764,380.593 212.553,380.420 216.065 M261.544 373.861 C 261.665 374.058,262.116 374.219,262.546 374.219 C 262.976 374.219,263.219 374.395,263.086 374.609 C 262.953 374.824,263.045 375.000,263.291 375.000 C 264.131 375.000,263.427 374.066,262.374 373.785 C 261.764 373.622,261.416 373.654,261.544 373.861 M132.902 374.292 C 133.097 374.876,133.984 375.197,133.984 374.684 C 133.984 374.474,133.706 374.196,133.366 374.065 C 132.985 373.919,132.807 374.006,132.902 374.292 M135.059 374.488 C 134.246 374.700,134.140 375.391,134.919 375.391 C 135.218 375.391,135.564 375.127,135.688 374.805 C 135.812 374.482,135.875 374.239,135.828 374.264 C 135.781 374.289,135.435 374.390,135.059 374.488 M151.652 380.542 C 151.847 381.126,152.734 381.447,152.734 380.934 C 152.734 380.724,152.456 380.446,152.116 380.315 C 151.735 380.169,151.557 380.256,151.652 380.542 M217.285 386.222 C 218.091 386.306,219.409 386.306,220.215 386.222 C 221.021 386.138,220.361 386.069,218.750 386.069 C 217.139 386.069,216.479 386.138,217.285 386.222 " stroke="none" fill="#3b61cc" fill-rule="evenodd"></path></g></svg>